<?xml version="1.0" standalone="no"?>
<!DOCTYPE svg PUBLIC "-//W3C//DTD SVG 1.1//EN" "http://www.w3.org/Graphics/SVG/1.1/DTD/svg11.dtd" >
<svg xmlns="http://www.w3.org/2000/svg">
<metadata></metadata>
<defs>
<font id="industry_inccutline" horiz-adv-x="1359" >
<font-face units-per-em="2048" ascent="1638" descent="-410" />
<missing-glyph horiz-adv-x="540" />
<glyph horiz-adv-x="0" />
<glyph horiz-adv-x="682" />
<glyph unicode=" "  horiz-adv-x="540" />
<glyph unicode="&#x09;" horiz-adv-x="540" />
<glyph unicode="&#xa0;" horiz-adv-x="540" />
<glyph unicode="!" horiz-adv-x="565" d="M123 1475h139l4 -977h-84zM139 0v299h287v-299h-287zM254 121h57v57h-57v-57zM299 498l4 977h139l-59 -977h-84z" />
<glyph unicode="&#x22;" horiz-adv-x="933" d="M113 1475h125l14 -525h-66zM268 950l15 525h125l-74 -525h-66zM526 1475h125l15 -525h-66zM682 950l14 525h125l-73 -525h-66z" />
<glyph unicode="#" horiz-adv-x="1622" d="M68 354v113h333l-151 -467h-117l115 354h-180zM68 508v113h266l84 258h-209v112h364l-157 -483h-348zM209 1032v113h297l106 330h119l-145 -443h-377zM291 0l151 467h551l-151 -467h-117l115 354h-316l-114 -354h-119zM457 508l157 483h551l-157 -483h-551zM610 621h316 l84 258h-316zM627 1032l145 443h117l-107 -330h316l106 330h117l-143 -443h-551zM883 0l151 467h379v-113h-297l-115 -354h-118zM1049 508l157 483h348v-112h-268l-84 -258h211v-113h-364zM1219 1032l143 443h119l-107 -330h180v-113h-335z" />
<glyph unicode="$" horiz-adv-x="1280" d="M121 283v188h123v-160q0 -95 52.5 -147.5t147.5 -52.5h170v-320h-98v201h-104q-129 0 -210 81t-81 210zM121 942v250q0 129 81 210t210 81h104v200h98v-319h-165q-95 0 -148 -53t-53 -148v-200q0 -74 42.5 -123t115.5 -64l442 -96q145 -30 145 -152v-217 q0 -77 -41.5 -118t-117.5 -41h-390q-76 0 -117.5 41t-41.5 118v160h123v-131q0 -70 69 -70h320q69 0 69 70v156q0 32 -16 46.5t-53 22.5l-381 82q-130 28 -212.5 103.5t-82.5 191.5zM289 963v200q0 77 41.5 118.5t118.5 41.5h364q77 0 118.5 -41.5t41.5 -118.5v-143h-123 v115q0 69 -70 69h-295q-69 0 -69 -69v-140q0 -32 16 -46.5t53 -22.5l381 -82q130 -28 212.5 -103.5t82.5 -191.5v-266q0 -129 -81 -210t-210 -81h-118v-201h-99v320h181q95 0 147.5 52.5t52.5 147.5v217q0 74 -42 123t-115 64l-443 96q-145 30 -145 152zM653 1364v319h99 v-200h94q129 0 210 -81t81 -210v-172h-123v143q0 95 -53 148t-148 53h-160z" />
<glyph unicode="%" horiz-adv-x="1275" d="M82 1040v312q0 57 37 94t94 37h201q57 0 94 -37t37 -94v-312q0 -57 -37 -94t-94 -37h-201q-57 0 -94 37t-37 94zM145 1071q0 -54 25.5 -79t79.5 -25h127q54 0 79 25t25 79v250q0 54 -25 79t-79 25h-127q-54 0 -79.5 -25t-25.5 -79v-250zM170 1071v250q0 80 80 80h127 q80 0 80 -80v-250q0 -80 -80 -80h-127q-80 0 -80 80zM184 0l664 1475h98l-663 -1475h-99zM231 1085q0 -15 9 -25.5t24 -10.5h103q28 0 28 36v222q0 36 -28 36h-103q-15 0 -24 -10.5t-9 -25.5v-222zM324 0l663 1475h98l-663 -1475h-98zM733 123v311q0 57 37 94t94 37h201 q57 0 94 -37t37 -94v-311q0 -57 -37 -94t-94 -37h-201q-57 0 -94 37t-37 94zM797 154q0 -54 25 -79.5t79 -25.5h127q54 0 79.5 25.5t25.5 79.5v249q0 54 -25.5 79.5t-79.5 25.5h-127q-54 0 -79 -25.5t-25 -79.5v-249zM821 154v249q0 80 80 80h127q80 0 80 -80v-249 q0 -80 -80 -80h-127q-80 0 -80 80zM883 168q0 -16 8.5 -26.5t23.5 -10.5h103q29 0 29 37v221q0 37 -29 37h-103q-15 0 -23.5 -10.5t-8.5 -26.5v-221z" />
<glyph unicode="&#x26;" horiz-adv-x="1347" d="M123 283v249q0 70 36 128.5t109 93.5q-129 75 -129 221v217q0 129 81 210t210 81h369q129 0 210 -81t81 -210v-143h-127v116q0 95 -53 148t-148 53h-295q-95 0 -148 -53t-53 -148v-209q0 -152 156 -202q-85 -21 -128.5 -76.5t-43.5 -134.5v-234q0 -95 53 -147.5 t148 -52.5h380q95 0 148 52.5t53 147.5v424h275v-110h-148v-340q0 -129 -81 -210t-210 -81h-454q-129 0 -210 81t-81 210zM291 309v234q0 89 60 139.5t165 50.5h475v-424q0 -76 -41.5 -117.5t-118.5 -41.5h-380q-77 0 -118.5 41.5t-41.5 117.5zM307 956v209q0 77 41.5 118.5 t118.5 41.5h295q76 0 118 -41.5t42 -118.5v-116h-127v90q0 69 -70 69h-221q-70 0 -70 -69v-185q0 -37 16.5 -53t53.5 -16h803v-111h-791q-94 0 -151.5 45t-57.5 137zM418 336q0 -70 69 -70h308q69 0 69 70v287h-360q-86 0 -86 -70v-217z" />
<glyph unicode="'" horiz-adv-x="520" d="M113 1475h125l14 -525h-66zM268 950l15 525h125l-74 -525h-66z" />
<glyph unicode="(" horiz-adv-x="800" d="M170 74v1241q0 129 81 210t210 81h231v-119h-194q-95 0 -148 -53t-53 -148v-1184q0 -95 53 -147.5t148 -52.5h194v-119h-231q-129 0 -210 81t-81 210zM338 102v1184q0 76 42 118t118 42h194v-119h-157q-70 0 -70 -70v-1126q0 -70 70 -70h157v-118h-194q-77 0 -118.5 41.5 t-41.5 117.5z" />
<glyph unicode=")" horiz-adv-x="800" d="M109 -57v118h157q70 0 70 70v1126q0 70 -70 70h-157v119h194q77 0 118.5 -42t41.5 -118v-1184q0 -76 -41.5 -117.5t-118.5 -41.5h-194zM109 -98h194q95 0 148 52.5t53 147.5v1184q0 95 -53 148t-148 53h-194v119h231q129 0 210 -81t81 -210v-1241q0 -129 -81 -210 t-210 -81h-231v119z" />
<glyph unicode="*" horiz-adv-x="860" d="M35 1104l28 94l357 -108l-230 -283l-77 55l225 209zM76 1235l28 92l271 -153l-62 301h99l12 -373zM223 784l207 299l203 -301l-78 -57l-127 281l-125 -279zM436 1102l13 373h98l-62 -301l267 151l30 -92zM440 1090l355 106l30 -92l-307 -35l225 -207l-79 -57z" />
<glyph unicode="+" horiz-adv-x="1040" d="M115 633v104h385v-364h-105v260h-280zM115 778v105h280v260h105v-365h-385zM541 373v364h385v-104h-281v-260h-104zM541 778v365h104v-260h281v-105h-385z" />
<glyph unicode="," horiz-adv-x="512" d="M66 -274l157 274h-110v299h286v-221q0 -67 -98 -193l-121 -159h-114zM227 121h58v57h-58v-57z" />
<glyph unicode="-" horiz-adv-x="946" d="M104 541v112h738v-112h-738zM104 694v113h738v-113h-738z" />
<glyph unicode="." horiz-adv-x="512" d="M113 0v299h286v-299h-286zM227 121h58v57h-58v-57z" />
<glyph unicode="/" horiz-adv-x="1069" d="M29 -143l725 1761h123l-725 -1761h-123zM193 -143l725 1761h122l-725 -1761h-122z" />
<glyph unicode="0" horiz-adv-x="1296" d="M127 283v909q0 129 81 210t210 81h461q129 0 209.5 -81t80.5 -210v-909q0 -129 -80.5 -210t-209.5 -81h-461q-129 0 -210 81t-81 210zM254 311q0 -95 53 -147.5t148 -52.5h387q95 0 147.5 52.5t52.5 147.5v852q0 95 -52.5 148t-147.5 53h-387q-95 0 -148 -53t-53 -148 v-852zM295 311v852q0 77 41.5 118.5t118.5 41.5h387q76 0 117.5 -41.5t41.5 -118.5v-852q0 -77 -41.5 -118t-117.5 -41h-387q-77 0 -118.5 41.5t-41.5 117.5zM422 340q0 -70 70 -70h313q69 0 69 70v795q0 69 -69 69h-313q-70 0 -70 -69v-795z" />
<glyph unicode="1" horiz-adv-x="841" d="M84 1073v103l340 141h55v-1317h-127v1167zM84 1214v105l330 156h233v-1475h-127v1356h-96z" />
<glyph unicode="2" horiz-adv-x="1239" d="M117 0v496q0 59 23 107t67 83t92 59t113 46l352 122q24 8 36 13t24.5 14.5t17 22.5t4.5 32v127q0 82 -82 82h-262q-82 0 -82 -82v-94h-123v135q0 77 41.5 118.5t118.5 41.5h356q77 0 118.5 -41.5t41.5 -118.5v-207q0 -59 -27 -88t-98 -55l-467 -166q-72 -26 -104.5 -66 t-32.5 -112v-350h901v-119h-1028zM133 1028v160q0 123 86 209t209 86h418q123 0 209 -86t86 -209v-258q0 -59 -23 -107t-67 -83t-92 -59t-113 -46l-352 -123q-24 -8 -36 -13t-24.5 -14.5t-17 -22.5t-4.5 -32v-151h733v-119h-860v309q0 60 25.5 89t99.5 56l467 166 q72 26 104.5 65t32.5 111v207q0 95 -53 148t-148 53h-356q-95 0 -148 -53t-53 -148v-135h-123z" />
<glyph unicode="3" horiz-adv-x="1245" d="M102 287v155h127v-133q0 -95 53 -147.5t148 -52.5h373q95 0 148 52.5t53 147.5v234q0 79 -43.5 134.5t-129.5 76.5q156 50 156 202v209q0 95 -53 148t-148 53h-340q-95 0 -147.5 -53t-52.5 -148v-133h-127v156q0 123 86 209t209 86h405q123 0 209 -86t86 -209v-213 q0 -146 -129 -221q73 -35 109 -93.5t36 -128.5v-245q0 -123 -85.5 -209t-208.5 -86h-439q-123 0 -209 86t-86 209zM270 309v133h127v-94q0 -82 82 -82h275q82 0 82 82v193q0 82 -99 82h-280v110h280q105 0 165.5 -50.5t60.5 -139.5v-234q0 -76 -41.5 -117.5t-118.5 -41.5 h-373q-77 0 -118.5 41.5t-41.5 117.5zM287 1032v133q0 77 41.5 118.5t117.5 41.5h340q76 0 118 -41.5t42 -118.5v-209q0 -92 -58.5 -137t-150.5 -45h-280v111h280q45 0 63.5 17t18.5 65v159q0 82 -82 82h-241q-82 0 -82 -82v-94h-127z" />
<glyph unicode="4" horiz-adv-x="1325" d="M47 516l774 959h250v-918h207v-111h-330v910h-90l-670 -836l33 -114h686v-406h-123v295h-675zM233 516l639 799h35v-869h-653zM408 557h376v481zM948 0v406h330v-111h-207v-295h-123z" />
<glyph unicode="5" horiz-adv-x="1292" d="M127 287v157h127v-133q0 -95 53 -147.5t148 -52.5h383q95 0 147.5 52.5t52.5 147.5v342q0 95 -52.5 148t-147.5 53h-131q-75 0 -134.5 -30.5t-130.5 -86.5l-127 37v541h809v-119h-682v-383l41 39q118 113 234 113h153q123 0 209 -86t86 -209v-383q0 -123 -86 -209 t-209 -86h-448q-123 0 -209 86t-86 209zM147 709v766h977v-119h-850v-604l168 -50q74 54 133.5 82.5t131.5 28.5h131q76 0 117.5 -41.5t41.5 -118.5v-342q0 -77 -41.5 -118t-117.5 -41h-383q-77 0 -118.5 41.5t-41.5 117.5v133h127v-92q0 -82 82 -82h284q82 0 82 82v269 q0 81 -82 81h-100q-113 0 -205 -55l-41 -24z" />
<glyph unicode="6" horiz-adv-x="1288" d="M127 287v901q0 123 86 209t209 86h432q123 0 209 -86t86 -209v-135h-127v110q0 95 -53 148t-148 53h-366q-95 0 -148 -53t-53 -148v-852q0 -95 53 -147.5t148 -52.5h383q95 0 147.5 52.5t52.5 147.5v303q0 95 -52.5 148t-147.5 53h-152q-28 0 -56 -5.5t-49 -11t-49 -22 t-44 -25.5t-47 -34.5t-44.5 -37t-50.5 -44.5t-51 -45v573q0 77 41.5 118.5t118.5 41.5h366q77 0 118.5 -41.5t41.5 -118.5v-110h-127v69q0 82 -82 82h-268q-82 0 -82 -82v-348l41 39q32 30 57 50t75 41.5t101 21.5h174q123 0 209 -86t86 -209v-344q0 -123 -86 -209t-209 -86 h-448q-123 0 -209 86t-86 209zM295 311v242q139 118 188 151q105 70 203 70h152q76 0 117.5 -41.5t41.5 -118.5v-303q0 -77 -41.5 -118t-117.5 -41h-383q-77 0 -118.5 41.5t-41.5 117.5zM422 352q0 -82 82 -82h284q82 0 82 82v230q0 82 -82 82h-120q-111 0 -205 -56l-41 -24 v-232z" />
<glyph unicode="7" horiz-adv-x="1185" d="M82 1196v119h885v-37l-709 -1278h-139l663 1196h-700zM82 1356v119h1053v-226l-693 -1249h-139l705 1270v86h-926z" />
<glyph unicode="8" horiz-adv-x="1269" d="M115 287v245q0 70 36 128.5t109 93.5q-129 75 -129 221v213q0 123 86 209t209 86h418q123 0 209 -86t86 -209v-213q0 -146 -129 -221q73 -35 109 -93.5t36 -128.5v-245q0 -123 -86 -209t-209 -86h-450q-123 0 -209 86t-86 209zM242 309q0 -95 52.5 -147.5t147.5 -52.5 h385q95 0 148 52.5t53 147.5v234q0 79 -43.5 134.5t-128.5 76.5q156 50 156 202v209q0 95 -53 148t-148 53h-352q-95 0 -148 -53t-53 -148v-209q0 -152 156 -202q-85 -21 -128.5 -76.5t-43.5 -134.5v-234zM283 309q0 -77 41.5 -118t117.5 -41h385q77 0 118.5 41.5 t41.5 117.5v234q0 89 -60 139.5t-165 50.5h-254q-105 0 -165 -50.5t-60 -139.5v-234zM299 956q0 -92 57.5 -137t151.5 -45h254q94 0 151.5 45t57.5 137v209q0 77 -41.5 118.5t-118.5 41.5h-352q-77 0 -118.5 -41.5t-41.5 -118.5v-209zM410 348v193q0 82 98 82h254 q98 0 98 -82v-193q0 -82 -82 -82h-286q-82 0 -82 82zM426 967v159q0 82 82 82h254q82 0 82 -82v-159q0 -48 -18.5 -65t-63.5 -17h-254q-45 0 -63.5 17t-18.5 65z" />
<glyph unicode="9" horiz-adv-x="1288" d="M123 852v336q0 123 86 209t209 86h448q123 0 209 -86t86 -209v-901q0 -123 -86 -209t-209 -86h-432q-123 0 -209 86t-86 209v135h127v-111q0 -95 53 -147.5t148 -52.5h367q95 0 147.5 52.5t52.5 147.5v852q0 95 -52.5 148t-147.5 53h-383q-95 0 -148 -53t-53 -148v-295 q0 -95 53 -147.5t148 -52.5h151q25 0 47.5 3t46.5 11.5t41 14.5t43 23.5t39 25.5t42.5 33t40 34t45.5 39.5t46 40.5v-582q0 -77 -41.5 -118t-117.5 -41h-367q-77 0 -118.5 41.5t-41.5 117.5v111h127v-70q0 -82 82 -82h268q82 0 82 82v357l-41 -39q-32 -30 -57 -50t-75 -41.5 t-101 -21.5h-174q-123 0 -209 86t-86 209zM291 868v295q0 77 41.5 118.5t118.5 41.5h383q76 0 117.5 -41.5t41.5 -118.5v-233q-49 -42 -64.5 -55t-55.5 -45t-57.5 -43t-50.5 -31t-55 -27t-51 -13.5t-57 -6.5h-151q-77 0 -118.5 41.5t-41.5 117.5zM418 901q0 -82 82 -82h121 q112 0 204 55l41 25v223q0 82 -82 82h-284q-82 0 -82 -82v-221z" />
<glyph unicode=":" horiz-adv-x="512" d="M113 0v299h286v-299h-286zM113 807v299h286v-299h-286zM227 121h58v57h-58v-57zM227 928h58v57h-58v-57z" />
<glyph unicode=";" horiz-adv-x="512" d="M66 -274l157 274h-110v299h286v-221q0 -67 -98 -193l-121 -159h-114zM113 807v299h286v-299h-286zM227 121h58v57h-58v-57zM227 928h58v57h-58v-57z" />
<glyph unicode="&#x3c;" horiz-adv-x="1040" d="M106 631v225l803 361v-105l-676 -297v-145l676 -291v-107zM274 692v103l635 276v-108l-528 -220l528 -217v-106z" />
<glyph unicode="=" horiz-adv-x="1040" d="M115 422v110h811v-110h-811zM115 573v111h811v-111h-811zM115 848v110h811v-110h-811zM115 999v111h811v-111h-811z" />
<glyph unicode="&#x3e;" horiz-adv-x="1040" d="M131 272v107l676 291v145l-676 297v105l803 -361v-225zM131 420v106l528 217l-528 220v108l635 -276v-103z" />
<glyph unicode="?" horiz-adv-x="1155" d="M35 1024v168q0 129 81 210t210 81h467q129 0 209.5 -81t80.5 -210v-252q0 -21 -4 -41t-16 -39t-21 -33t-31.5 -33t-34 -29t-42.5 -30t-43 -27.5t-49.5 -29.5t-48.5 -29l-82 -49q-25 -15 -36.5 -22.5t-22.5 -20.5t-11 -27v-92h-127v119q0 10 1.5 19t6 17.5t8 15t12.5 15 t14 13t18 14t19 13.5t23 15t23 15l180 119q72 47 104.5 86.5t32.5 97.5v166q0 95 -52.5 148t-147.5 53h-394q-95 0 -147.5 -53t-52.5 -148v-139h-127zM203 1024v139q0 77 41.5 118.5t117.5 41.5h394q76 0 117.5 -41.5t41.5 -118.5v-166q0 -46 -27 -76.5t-97 -76.5l-181 -119 q-39 -26 -55 -38t-40 -34.5t-33 -45t-9 -50.5v-119h-127v154q0 20 5 39t17 38t23 34t33 34t36 31t43 31.5t44 28.5t48 30t46 29l78 49q4 2 11.5 7t11 7t9.5 6.5t9 6.5t8 6t7 7t5 7t4.5 7t2.5 7.5t1 8.5v129q0 69 -69 69h-320q-69 0 -69 -69v-111h-127zM346 0v295h295v-295 h-295zM465 121h57v57h-57v-57z" />
<glyph unicode="@" horiz-adv-x="2004" d="M166 -45v1237q0 129 81 210t210 81h1091q129 0 210 -81t81 -210v-786q0 -129 -81 -210t-210 -81h-364l-41 147l-66 -63q-93 -93 -192 -93h-54q-129 0 -209.5 81t-80.5 210v348q0 129 80.5 210t209.5 81h54q100 0 192 -92l66 -63l41 147h86v-309q-11 9 -59.5 48.5 t-65.5 53t-58.5 43t-66 41t-57.5 22.5t-62 11h-37q-95 0 -146.5 -52t-51.5 -147v-336q0 -95 51.5 -146.5t146.5 -51.5h37q29 0 62 11t57.5 22.5t66 41t58.5 43t65.5 53t59.5 48.5v-246h278q96 0 148.5 62t52.5 163v799q0 89 -51.5 143t-138.5 54h-1115q-87 0 -137.5 -54 t-50.5 -143v-1257q0 -89 51.5 -143t138.5 -54h1053v-84h-1042q-129 0 -210 81t-81 210zM285 -55v1257q0 75 43 121.5t116 46.5h1115q73 0 117 -47t44 -121v-799q0 -86 -44.5 -141t-127.5 -55h-241v821h123v-758h118q82 0 82 136v811q0 69 -69 69h-1117q-69 0 -69 -69v-1287 q0 -69 69 -69h1055v-84h-1053q-73 0 -117 47t-44 121zM702 403v336q0 77 43 119.5t119 42.5h37q22 0 46 -6t52.5 -20.5t50.5 -27t57 -37t53.5 -38t57 -43t52.5 -39.5v-237q-14 -10 -52.5 -39.5t-57 -43t-53.5 -38t-57 -37t-50.5 -27t-52.5 -20.5t-46 -6h-37 q-77 0 -119.5 42.5t-42.5 118.5zM827 410q0 -70 70 -70h23q79 0 157 43l66 37v303l-66 37q-78 43 -157 43h-23q-70 0 -70 -70v-323z" />
<glyph unicode="A" d="M33 0l475 1475h344l475 -1475h-137l-416 1356h-188l-422 -1356h-131zM203 0l139 451h672l137 -451h-141l-97 332h-477l-98 -332h-135zM354 492l256 823h140l251 -823h-647zM518 610h316l-156 541z" />
<glyph unicode="B" horiz-adv-x="1329" d="M162 0v1475h745q129 0 210 -81t81 -210v-209q0 -146 -129 -221q73 -35 109 -93.5t36 -128.5v-241q0 -129 -80.5 -210t-209.5 -81h-762zM289 119h598q95 0 147.5 52.5t52.5 147.5v224q0 74 -53 136.5t-137 74.5q80 14 127 72t47 130v199q0 95 -53 148t-148 53h-581v-1237z M330 160v573h475q104 0 173 -54t69 -136v-224q0 -76 -41.5 -117.5t-118.5 -41.5h-557zM330 774v541h540q76 0 118 -41.5t42 -118.5v-199q0 -86 -68 -134t-161 -48h-471zM457 274h393q70 0 70 70v213q0 42 -22.5 54t-72.5 12h-368v-349zM457 885h377q41 0 55 13.5t14 55.5 v176q0 70 -69 70h-377v-315z" />
<glyph unicode="C" horiz-adv-x="1275" d="M127 283v909q0 129 81 210t210 81h467q129 0 210 -81t81 -210v-238h-127v209q0 95 -53 148t-148 53h-393q-95 0 -148 -53t-53 -148v-852q0 -95 53 -147.5t148 -52.5h393q95 0 148 52.5t53 147.5v209h127v-237q0 -129 -81 -210t-210 -81h-467q-129 0 -210 81t-81 210z M295 311v852q0 77 41.5 118.5t118.5 41.5h393q76 0 118 -41.5t42 -118.5v-209h-127v181q0 69 -70 69h-319q-70 0 -70 -69v-795q0 -70 70 -70h319q70 0 70 70v180h127v-209q0 -76 -41.5 -117.5t-118.5 -41.5h-393q-77 0 -118.5 41.5t-41.5 117.5z" />
<glyph unicode="D" horiz-adv-x="1347" d="M162 0v1475h768q129 0 210 -81t81 -210v-893q0 -129 -81 -210t-210 -81h-768zM289 119h604q95 0 148 52.5t53 147.5v836q0 95 -53 148t-148 53h-604v-1237zM330 160v1155h563q77 0 118.5 -41.5t41.5 -118.5v-836q0 -76 -41.5 -117.5t-118.5 -41.5h-563zM457 279h399 q70 0 70 69v778q0 70 -70 70h-399v-917z" />
<glyph unicode="E" horiz-adv-x="1224" d="M162 0v1475h964v-119h-837v-1237h837v-119h-964zM330 160v573h669v-119h-542v-335h669v-119h-796zM330 774v541h796v-119h-669v-303h542v-119h-669z" />
<glyph unicode="F" horiz-adv-x="1187" d="M162 0v1475h964v-119h-837v-1356h-127zM330 0v721h669v-119h-542v-602h-127zM330 762v553h796v-119h-669v-315h542v-119h-669z" />
<glyph unicode="G" horiz-adv-x="1314" d="M127 283v909q0 129 81 210t210 81h485q129 0 210 -81t81 -210v-193h-127v164q0 95 -53 148t-148 53h-411q-95 0 -148 -53t-53 -148v-852q0 -95 53 -147.5t148 -52.5h411q95 0 148 52.5t53 147.5v402h-438v112h565v-542q0 -129 -81 -210t-210 -81h-485q-129 0 -210 81 t-81 210zM295 311v852q0 77 41.5 118.5t118.5 41.5h411q76 0 118 -41.5t42 -118.5v-164h-127v136q0 69 -70 69h-337q-70 0 -70 -69v-795q0 -70 70 -70h337q70 0 70 70v219h-270v113h397v-361q0 -76 -41.5 -117.5t-118.5 -41.5h-411q-77 0 -118.5 41.5t-41.5 117.5z" />
<glyph unicode="H" horiz-adv-x="1421" d="M162 0v1475h127v-1475h-127zM330 0v733h762v-733h-127v614h-508v-614h-127zM330 774v701h127v-582h508v582h127v-701h-762zM1133 0v1475h127v-1475h-127z" />
<glyph unicode="I" horiz-adv-x="618" d="M162 0v1475h127v-1475h-127zM330 0v1475h127v-1475h-127z" />
<glyph unicode="J" horiz-adv-x="1204" d="M55 283v323h127v-295q0 -95 53 -147.5t148 -52.5h354q95 0 148 52.5t53 147.5v1164h127v-1192q0 -129 -81 -210t-210 -81h-428q-129 0 -210 81t-81 210zM223 311v295h127v-266q0 -70 70 -70h280q70 0 70 70v1135h127v-1164q0 -76 -41.5 -117.5t-118.5 -41.5h-354 q-77 0 -118.5 41.5t-41.5 117.5z" />
<glyph unicode="K" horiz-adv-x="1361" d="M162 0v1475h127v-1475h-127zM330 0v391l356 465l459 -856h-146l-340 641l-206 -264v-377h-123zM330 453v1022h123v-693l510 693h147zM713 889l444 586h152l-453 -582l475 -893h-141z" />
<glyph unicode="L" horiz-adv-x="1136" d="M162 0v1475h127v-1356h786v-119h-913zM330 160v1315h127v-1196h618v-119h-745z" />
<glyph unicode="M" horiz-adv-x="1732" d="M162 0v1475h323l381 -865l381 865h324v-1475h-119v1356h-137l-426 -940h-45l-426 940h-137v-1356h-119zM322 0v1315h73l426 -940h90l426 940h74v-1315h-119v983l-319 -747h-213l-320 747v-983h-118z" />
<glyph unicode="N" horiz-adv-x="1460" d="M162 0v1475h317l543 -1006v1006h117v-1315h-70l-657 1196h-131v-1356h-119zM322 0v1315h69l658 -1196h131v1356h118v-1475h-317l-543 1006v-1006h-116z" />
<glyph unicode="O" horiz-adv-x="1329" d="M127 283v909q0 129 81 210t210 81h493q129 0 210 -81t81 -210v-909q0 -129 -81 -210t-210 -81h-493q-129 0 -210 81t-81 210zM254 311q0 -95 53 -147.5t148 -52.5h419q95 0 148 52.5t53 147.5v852q0 95 -53 148t-148 53h-419q-95 0 -148 -53t-53 -148v-852zM295 311v852 q0 77 41.5 118.5t118.5 41.5h419q76 0 118 -41.5t42 -118.5v-852q0 -76 -41.5 -117.5t-118.5 -41.5h-419q-77 0 -118.5 41.5t-41.5 117.5zM422 340q0 -70 70 -70h346q69 0 69 70v795q0 69 -69 69h-346q-70 0 -70 -69v-795z" />
<glyph unicode="P" horiz-adv-x="1282" d="M162 0v1475h753q129 0 210 -81t81 -210v-373q0 -129 -81 -210t-210 -81h-458v-520h-127v639h549q95 0 147.5 53t52.5 148v315q0 95 -52.5 148t-147.5 53h-590v-1356h-127zM330 680v635h549q76 0 117.5 -41.5t41.5 -118.5v-315q0 -77 -41.5 -118.5t-117.5 -41.5h-549z M457 799h385q69 0 69 69v258q0 70 -69 70h-385v-397z" />
<glyph unicode="Q" horiz-adv-x="1337" d="M127 283v909q0 129 81 210t210 81h502q129 0 209.5 -81t80.5 -210v-909q0 -129 -80.5 -210t-209.5 -81h-103v-254h-127v375h193q95 0 147.5 51.5t52.5 146.5v852q0 95 -52.5 147t-147.5 52h-428q-95 0 -148 -52t-53 -147v-852q0 -95 52.5 -146.5t148.5 -51.5h194v-375 h-127v254h-104q-129 0 -210 81t-81 210zM295 311v852q0 76 41.5 117t118.5 41h428q77 0 118 -41t41 -117v-852q0 -76 -41 -116.5t-118 -40.5h-428q-77 0 -118.5 40.5t-41.5 116.5zM422 344q0 -70 70 -70h354q69 0 69 70v786q0 70 -69 70h-354q-70 0 -70 -70v-786z" />
<glyph unicode="R" horiz-adv-x="1331" d="M162 0v1475h751q129 0 210 -81t81 -210v-346q0 -104 -53.5 -178.5t-146.5 -100.5l245 -559h-137l-289 664h54q95 0 147.5 52.5t52.5 147.5v291q0 95 -52.5 148t-147.5 53h-588v-1356h-127zM330 0v664h450l289 -664h-137l-238 547h-237v-547h-127zM330 705v610h547 q76 0 117.5 -41.5t41.5 -118.5v-291q0 -76 -41 -117.5t-118 -41.5h-547zM457 821h383q69 0 69 70v235q0 70 -69 70h-383v-375z" />
<glyph unicode="S" horiz-adv-x="1280" d="M121 283v188h123v-160q0 -95 52.5 -147.5t147.5 -52.5h390q95 0 147.5 52.5t52.5 147.5v211q0 75 -32.5 117t-104.5 61l-483 125q-69 19 -97 51.5t-28 92.5v194q0 77 41.5 118.5t118.5 41.5h364q77 0 118.5 -41.5t41.5 -118.5v-143h-123v115q0 69 -70 69h-295 q-69 0 -69 -69v-140q0 -32 16 -46.5t53 -22.5l381 -82q130 -28 212.5 -103.5t82.5 -191.5v-266q0 -129 -81 -210t-210 -81h-458q-129 0 -210 81t-81 210zM121 942v250q0 129 81 210t210 81h434q129 0 210 -81t81 -210v-172h-123v143q0 95 -53 148t-148 53h-364 q-95 0 -148 -53t-53 -148v-194q0 -83 37.5 -122t128.5 -63l483 -125q96 -23 96 -137v-211q0 -77 -41.5 -118t-117.5 -41h-390q-76 0 -117.5 41t-41.5 118v160h123v-131q0 -70 69 -70h320q69 0 69 70v156q0 32 -16 46.5t-53 22.5l-381 82q-130 28 -212.5 103.5t-82.5 191.5z " />
<glyph unicode="T" horiz-adv-x="1167" d="M51 1200v117h512v-1317h-127v1200h-385zM51 1358v117h1065v-117h-1065zM604 0v1317h512v-117h-385v-1200h-127z" />
<glyph unicode="U" horiz-adv-x="1331" d="M139 283v1192h127v-1164q0 -95 53 -147.5t148 -52.5h397q95 0 148 52.5t53 147.5v1164h127v-1192q0 -129 -81 -210t-210 -81h-471q-129 0 -210 81t-81 210zM307 311v1164h127v-1135q0 -70 70 -70h323q70 0 70 70v1135h127v-1164q0 -76 -41.5 -117.5t-118.5 -41.5h-397 q-77 0 -118.5 41.5t-41.5 117.5z" />
<glyph unicode="V" horiz-adv-x="1314" d="M37 1475h149l379 -1356h185l385 1356h143l-449 -1475h-344zM227 1475h146l284 -1121l293 1121h144l-373 -1315h-127z" />
<glyph unicode="W" horiz-adv-x="1859" d="M37 1475h137l295 -1356h156l288 1200h45l289 -1200h148l295 1356h133l-367 -1475h-278l-242 971l-242 -971h-291zM213 1475h139l201 -1078l266 1078h234l266 -1078l201 1078h131l-287 -1315h-90l-289 1196h-98l-289 -1196h-98z" />
<glyph unicode="X" horiz-adv-x="1294" d="M29 0l442 756l-430 719h147l435 -711l-459 -764h-135zM209 0l434 721l428 -721h-149l-287 487l-285 -487h-141zM236 1475h149l274 -465l273 465h141l-420 -687zM672 748l446 727h135l-428 -738l441 -737h-148z" />
<glyph unicode="Y" horiz-adv-x="1228" d="M12 1475h140l442 -949v-526h-127v510zM195 1475h141l278 -631l279 631h139l-418 -902zM635 0v526l440 949h142l-455 -965v-510h-127z" />
<glyph unicode="Z" horiz-adv-x="1224" d="M94 0v225l664 975h-627v117h832v-31l-742 -1089v-80h905v-117h-1032zM131 1358v117h999v-226l-663 -975h659v-116h-864v30l742 1090v80h-873z" />
<glyph unicode="[" horiz-adv-x="780" d="M170 -217v1823h502v-119h-375v-1585h375v-119h-502zM338 -57v1503h334v-119h-207v-1266h207v-118h-334z" />
<glyph unicode="\" horiz-adv-x="1069" d="M29 1618h123l725 -1761h-123zM193 1618h122l725 -1761h-122z" />
<glyph unicode="]" horiz-adv-x="780" d="M109 -57v118h206v1266h-206v119h333v-1503h-333zM109 -98h374v1585h-374v119h501v-1823h-501v119z" />
<glyph unicode="^" horiz-adv-x="1458" d="M135 590l443 885h303l442 -885h-129l-383 766h-164l-383 -766h-129zM305 590l363 725h123l362 -725h-129l-295 590l-295 -590h-129z" />
<glyph unicode="_" horiz-adv-x="1179" d="M12 -90h1155v-109h-1155v109zM12 -240h1155v-108h-1155v108z" />
<glyph unicode="`" horiz-adv-x="849" d="M164 1905h158l235 -295h-88zM362 1905h140l184 -295h-88z" />
<glyph unicode="a" d="M33 0l475 1475h344l475 -1475h-137l-416 1356h-188l-422 -1356h-131zM203 0l139 451h672l137 -451h-141l-97 332h-477l-98 -332h-135zM354 492l256 823h140l251 -823h-647zM518 610h316l-156 541z" />
<glyph unicode="b" horiz-adv-x="1329" d="M162 0v1475h745q129 0 210 -81t81 -210v-209q0 -146 -129 -221q73 -35 109 -93.5t36 -128.5v-241q0 -129 -80.5 -210t-209.5 -81h-762zM289 119h598q95 0 147.5 52.5t52.5 147.5v224q0 74 -53 136.5t-137 74.5q80 14 127 72t47 130v199q0 95 -53 148t-148 53h-581v-1237z M330 160v573h475q104 0 173 -54t69 -136v-224q0 -76 -41.5 -117.5t-118.5 -41.5h-557zM330 774v541h540q76 0 118 -41.5t42 -118.5v-199q0 -86 -68 -134t-161 -48h-471zM457 274h393q70 0 70 70v213q0 42 -22.5 54t-72.5 12h-368v-349zM457 885h377q41 0 55 13.5t14 55.5 v176q0 70 -69 70h-377v-315z" />
<glyph unicode="c" horiz-adv-x="1275" d="M127 283v909q0 129 81 210t210 81h467q129 0 210 -81t81 -210v-238h-127v209q0 95 -53 148t-148 53h-393q-95 0 -148 -53t-53 -148v-852q0 -95 53 -147.5t148 -52.5h393q95 0 148 52.5t53 147.5v209h127v-237q0 -129 -81 -210t-210 -81h-467q-129 0 -210 81t-81 210z M295 311v852q0 77 41.5 118.5t118.5 41.5h393q76 0 118 -41.5t42 -118.5v-209h-127v181q0 69 -70 69h-319q-70 0 -70 -69v-795q0 -70 70 -70h319q70 0 70 70v180h127v-209q0 -76 -41.5 -117.5t-118.5 -41.5h-393q-77 0 -118.5 41.5t-41.5 117.5z" />
<glyph unicode="d" horiz-adv-x="1347" d="M162 0v1475h768q129 0 210 -81t81 -210v-893q0 -129 -81 -210t-210 -81h-768zM289 119h604q95 0 148 52.5t53 147.5v836q0 95 -53 148t-148 53h-604v-1237zM330 160v1155h563q77 0 118.5 -41.5t41.5 -118.5v-836q0 -76 -41.5 -117.5t-118.5 -41.5h-563zM457 279h399 q70 0 70 69v778q0 70 -70 70h-399v-917z" />
<glyph unicode="e" horiz-adv-x="1224" d="M162 0v1475h964v-119h-837v-1237h837v-119h-964zM330 160v573h669v-119h-542v-335h669v-119h-796zM330 774v541h796v-119h-669v-303h542v-119h-669z" />
<glyph unicode="f" horiz-adv-x="1187" d="M162 0v1475h964v-119h-837v-1356h-127zM330 0v721h669v-119h-542v-602h-127zM330 762v553h796v-119h-669v-315h542v-119h-669z" />
<glyph unicode="g" horiz-adv-x="1314" d="M127 283v909q0 129 81 210t210 81h485q129 0 210 -81t81 -210v-193h-127v164q0 95 -53 148t-148 53h-411q-95 0 -148 -53t-53 -148v-852q0 -95 53 -147.5t148 -52.5h411q95 0 148 52.5t53 147.5v402h-438v112h565v-542q0 -129 -81 -210t-210 -81h-485q-129 0 -210 81 t-81 210zM295 311v852q0 77 41.5 118.5t118.5 41.5h411q76 0 118 -41.5t42 -118.5v-164h-127v136q0 69 -70 69h-337q-70 0 -70 -69v-795q0 -70 70 -70h337q70 0 70 70v219h-270v113h397v-361q0 -76 -41.5 -117.5t-118.5 -41.5h-411q-77 0 -118.5 41.5t-41.5 117.5z" />
<glyph unicode="h" horiz-adv-x="1421" d="M162 0v1475h127v-1475h-127zM330 0v733h762v-733h-127v614h-508v-614h-127zM330 774v701h127v-582h508v582h127v-701h-762zM1133 0v1475h127v-1475h-127z" />
<glyph unicode="i" horiz-adv-x="618" d="M162 0v1475h127v-1475h-127zM330 0v1475h127v-1475h-127z" />
<glyph unicode="j" horiz-adv-x="1204" d="M55 283v323h127v-295q0 -95 53 -147.5t148 -52.5h354q95 0 148 52.5t53 147.5v1164h127v-1192q0 -129 -81 -210t-210 -81h-428q-129 0 -210 81t-81 210zM223 311v295h127v-266q0 -70 70 -70h280q70 0 70 70v1135h127v-1164q0 -76 -41.5 -117.5t-118.5 -41.5h-354 q-77 0 -118.5 41.5t-41.5 117.5z" />
<glyph unicode="k" horiz-adv-x="1361" d="M162 0v1475h127v-1475h-127zM330 0v391l356 465l459 -856h-146l-340 641l-206 -264v-377h-123zM330 453v1022h123v-693l510 693h147zM713 889l444 586h152l-453 -582l475 -893h-141z" />
<glyph unicode="l" horiz-adv-x="1136" d="M162 0v1475h127v-1356h786v-119h-913zM330 160v1315h127v-1196h618v-119h-745z" />
<glyph unicode="m" horiz-adv-x="1732" d="M162 0v1475h323l381 -865l381 865h324v-1475h-119v1356h-137l-426 -940h-45l-426 940h-137v-1356h-119zM322 0v1315h73l426 -940h90l426 940h74v-1315h-119v983l-319 -747h-213l-320 747v-983h-118z" />
<glyph unicode="n" horiz-adv-x="1460" d="M162 0v1475h317l543 -1006v1006h117v-1315h-70l-657 1196h-131v-1356h-119zM322 0v1315h69l658 -1196h131v1356h118v-1475h-317l-543 1006v-1006h-116z" />
<glyph unicode="o" horiz-adv-x="1329" d="M127 283v909q0 129 81 210t210 81h493q129 0 210 -81t81 -210v-909q0 -129 -81 -210t-210 -81h-493q-129 0 -210 81t-81 210zM254 311q0 -95 53 -147.5t148 -52.5h419q95 0 148 52.5t53 147.5v852q0 95 -53 148t-148 53h-419q-95 0 -148 -53t-53 -148v-852zM295 311v852 q0 77 41.5 118.5t118.5 41.5h419q76 0 118 -41.5t42 -118.5v-852q0 -76 -41.5 -117.5t-118.5 -41.5h-419q-77 0 -118.5 41.5t-41.5 117.5zM422 340q0 -70 70 -70h346q69 0 69 70v795q0 69 -69 69h-346q-70 0 -70 -69v-795z" />
<glyph unicode="p" horiz-adv-x="1282" d="M162 0v1475h753q129 0 210 -81t81 -210v-373q0 -129 -81 -210t-210 -81h-458v-520h-127v639h549q95 0 147.5 53t52.5 148v315q0 95 -52.5 148t-147.5 53h-590v-1356h-127zM330 680v635h549q76 0 117.5 -41.5t41.5 -118.5v-315q0 -77 -41.5 -118.5t-117.5 -41.5h-549z M457 799h385q69 0 69 69v258q0 70 -69 70h-385v-397z" />
<glyph unicode="q" horiz-adv-x="1337" d="M127 283v909q0 129 81 210t210 81h502q129 0 209.5 -81t80.5 -210v-909q0 -129 -80.5 -210t-209.5 -81h-103v-254h-127v375h193q95 0 147.5 51.5t52.5 146.5v852q0 95 -52.5 147t-147.5 52h-428q-95 0 -148 -52t-53 -147v-852q0 -95 52.5 -146.5t148.5 -51.5h194v-375 h-127v254h-104q-129 0 -210 81t-81 210zM295 311v852q0 76 41.5 117t118.5 41h428q77 0 118 -41t41 -117v-852q0 -76 -41 -116.5t-118 -40.5h-428q-77 0 -118.5 40.5t-41.5 116.5zM422 344q0 -70 70 -70h354q69 0 69 70v786q0 70 -69 70h-354q-70 0 -70 -70v-786z" />
<glyph unicode="r" horiz-adv-x="1331" d="M162 0v1475h751q129 0 210 -81t81 -210v-346q0 -104 -53.5 -178.5t-146.5 -100.5l245 -559h-137l-289 664h54q95 0 147.5 52.5t52.5 147.5v291q0 95 -52.5 148t-147.5 53h-588v-1356h-127zM330 0v664h450l289 -664h-137l-238 547h-237v-547h-127zM330 705v610h547 q76 0 117.5 -41.5t41.5 -118.5v-291q0 -76 -41 -117.5t-118 -41.5h-547zM457 821h383q69 0 69 70v235q0 70 -69 70h-383v-375z" />
<glyph unicode="s" horiz-adv-x="1280" d="M121 283v188h123v-160q0 -95 52.5 -147.5t147.5 -52.5h390q95 0 147.5 52.5t52.5 147.5v211q0 75 -32.5 117t-104.5 61l-483 125q-69 19 -97 51.5t-28 92.5v194q0 77 41.5 118.5t118.5 41.5h364q77 0 118.5 -41.5t41.5 -118.5v-143h-123v115q0 69 -70 69h-295 q-69 0 -69 -69v-140q0 -32 16 -46.5t53 -22.5l381 -82q130 -28 212.5 -103.5t82.5 -191.5v-266q0 -129 -81 -210t-210 -81h-458q-129 0 -210 81t-81 210zM121 942v250q0 129 81 210t210 81h434q129 0 210 -81t81 -210v-172h-123v143q0 95 -53 148t-148 53h-364 q-95 0 -148 -53t-53 -148v-194q0 -83 37.5 -122t128.5 -63l483 -125q96 -23 96 -137v-211q0 -77 -41.5 -118t-117.5 -41h-390q-76 0 -117.5 41t-41.5 118v160h123v-131q0 -70 69 -70h320q69 0 69 70v156q0 32 -16 46.5t-53 22.5l-381 82q-130 28 -212.5 103.5t-82.5 191.5z " />
<glyph unicode="t" horiz-adv-x="1167" d="M51 1200v117h512v-1317h-127v1200h-385zM51 1358v117h1065v-117h-1065zM604 0v1317h512v-117h-385v-1200h-127z" />
<glyph unicode="u" horiz-adv-x="1331" d="M139 283v1192h127v-1164q0 -95 53 -147.5t148 -52.5h397q95 0 148 52.5t53 147.5v1164h127v-1192q0 -129 -81 -210t-210 -81h-471q-129 0 -210 81t-81 210zM307 311v1164h127v-1135q0 -70 70 -70h323q70 0 70 70v1135h127v-1164q0 -76 -41.5 -117.5t-118.5 -41.5h-397 q-77 0 -118.5 41.5t-41.5 117.5z" />
<glyph unicode="v" horiz-adv-x="1314" d="M37 1475h149l379 -1356h185l385 1356h143l-449 -1475h-344zM227 1475h146l284 -1121l293 1121h144l-373 -1315h-127z" />
<glyph unicode="w" horiz-adv-x="1859" d="M37 1475h137l295 -1356h156l288 1200h45l289 -1200h148l295 1356h133l-367 -1475h-278l-242 971l-242 -971h-291zM213 1475h139l201 -1078l266 1078h234l266 -1078l201 1078h131l-287 -1315h-90l-289 1196h-98l-289 -1196h-98z" />
<glyph unicode="x" horiz-adv-x="1294" d="M29 0l442 756l-430 719h147l435 -711l-459 -764h-135zM209 0l434 721l428 -721h-149l-287 487l-285 -487h-141zM236 1475h149l274 -465l273 465h141l-420 -687zM672 748l446 727h135l-428 -738l441 -737h-148z" />
<glyph unicode="y" horiz-adv-x="1228" d="M12 1475h140l442 -949v-526h-127v510zM195 1475h141l278 -631l279 631h139l-418 -902zM635 0v526l440 949h142l-455 -965v-510h-127z" />
<glyph unicode="z" horiz-adv-x="1224" d="M94 0v225l664 975h-627v117h832v-31l-742 -1089v-80h905v-117h-1032zM131 1358v117h999v-226l-663 -975h659v-116h-864v30l742 1090v80h-873z" />
<glyph unicode="{" horiz-adv-x="925" d="M88 573v107h137q90 0 143.5 -43t53.5 -129v-406q0 -95 53 -147.5t148 -52.5h194v-119h-231q-129 0 -210 81t-81 210v430q0 69 -70 69h-137zM88 721v106h137q70 0 70 70v418q0 129 81 210t210 81h231v-119h-194q-95 0 -148 -53t-53 -148v-393q0 -86 -53.5 -129t-143.5 -43 h-137zM287 700q70 0 123 50t53 143v393q0 76 41.5 118t118.5 42h194v-119h-158q-69 0 -69 -70v-368q0 -116 -111 -189q111 -73 111 -188v-381q0 -70 69 -70h158v-118h-194q-77 0 -118.5 41.5t-41.5 117.5v406q0 92 -55 142t-121 50z" />
<glyph unicode="|" horiz-adv-x="720" d="M225 -442v2054h115v-2054h-115zM381 -442v2054h115v-2054h-115z" />
<glyph unicode="}" horiz-adv-x="925" d="M109 -57v118h157q70 0 70 70v381q0 115 110 188q-110 73 -110 189v368q0 70 -70 70h-157v119h194q77 0 118.5 -42t41.5 -118v-393q0 -93 53 -143t123 -50q-66 0 -121 -50t-55 -142v-406q0 -76 -41.5 -117.5t-118.5 -41.5h-194zM109 -98h194q95 0 148 52.5t53 147.5v406 q0 86 53 129t143 43h138v-107h-138q-69 0 -69 -69v-430q0 -129 -81 -210t-210 -81h-231v119zM109 1487v119h231q129 0 210 -81t81 -210v-418q0 -70 69 -70h138v-106h-138q-90 0 -143 43t-53 129v393q0 95 -53 148t-148 53h-194z" />
<glyph unicode="~" horiz-adv-x="1040" d="M141 530l78 215q30 86 125 64l354 -78l45 92h64l-74 -161q-4 -9 -7.5 -11t-12.5 0l-375 84q-51 11 -68 -33l-67 -172h-62zM231 530l72 162q4 9 8 10.5t13 -0.5l372 -81q52 -12 68 30l72 172h63l-82 -217q-30 -83 -123 -61l-356 82l-45 -97h-62z" />
<glyph unicode="&#xa1;" horiz-adv-x="565" d="M123 -369l59 977h84l-4 -977h-139zM139 807v299h287v-299h-287zM254 928h57v57h-57v-57zM299 608h84l59 -977h-139z" />
<glyph unicode="&#xa2;" horiz-adv-x="1155" d="M117 487v512q0 129 81 210t210 81h57v185h100v-291h-135q-95 0 -148 -53t-53 -148v-479q0 -95 53 -148t148 -53h135v-303h-100v197h-57q-129 0 -210 80.5t-81 209.5zM270 504v479q0 77 42 118.5t118 41.5h299q77 0 118.5 -41.5t41.5 -118.5v-119h-113v103q0 69 -69 69 h-254q-70 0 -70 -69v-447q0 -69 70 -69h254q69 0 69 69v103h113v-119q0 -76 -41.5 -118t-118.5 -42h-299q-76 0 -118 42t-42 118zM606 0v303h123q95 0 148 53t53 148v119h112v-136q0 -129 -80.5 -209.5t-209.5 -80.5h-45v-197h-101zM606 1184v291h101v-185h45 q129 0 209.5 -81t80.5 -210v-135h-112v119q0 95 -53 148t-148 53h-123z" />
<glyph unicode="&#xa3;" horiz-adv-x="1284" d="M51 0v119h1129v-119h-1129zM51 160v119h107q61 0 61 61v235h-168v117h295v-532h-295zM51 733v117h168v338q0 138 78.5 216.5t216.5 78.5h363q138 0 216 -78.5t78 -216.5v-189h-127v164q0 95 -52.5 148t-147.5 53h-297q-95 0 -148 -53t-53 -148v-430h-295zM387 160v532 h422v-117h-295v-296h666v-119h-793zM387 733v430q0 77 41.5 118.5t118.5 41.5h297q76 0 118 -41.5t42 -118.5v-164h-127v136q0 69 -70 69h-223q-70 0 -70 -69v-285h295v-117h-422z" />
<glyph unicode="&#xa4;" horiz-adv-x="1230" d="M35 317l172 172q-14 43 -14 101v328q0 52 12 96l-170 170l69 71l226 -223q-33 -54 -33 -125v-307q0 -82 37 -131l-228 -225zM133 1284l76 76l170 -170q43 14 100 14h273q57 0 100 -14l170 170l74 -74l-224 -223q-51 45 -139 45h-235q-92 0 -142 -47zM135 215l227 227 q49 -43 136 -43h235q86 0 135 43l228 -227l-74 -74l-174 174q-44 -12 -96 -12h-273q-53 0 -96 12l-174 -174zM338 600v307q0 77 42 118.5t118 41.5h235q77 0 118.5 -41.5t41.5 -118.5v-307q0 -76 -41.5 -118t-118.5 -42h-235q-76 0 -118 42t-42 118zM442 606q0 -69 70 -69 h207q69 0 69 69v295q0 70 -69 70h-207q-70 0 -70 -70v-295zM897 469q37 49 37 131v307q0 77 -35 127l225 223l72 -73l-170 -170q12 -44 12 -96v-328q0 -58 -14 -101l172 -172l-72 -73z" />
<glyph unicode="&#xa5;" horiz-adv-x="1228" d="M12 1475h140l442 -949v-526h-127v315h-313v144h313v51l-18 39h-295v143h227zM195 1475h141l278 -631l279 631h141l-420 -902zM635 0v526l442 949h140l-369 -783h227v-143h-295l-18 -39v-51h313v-144h-313v-315h-127z" />
<glyph unicode="&#xa6;" horiz-adv-x="720" d="M225 369h115v-811h-115v811zM225 801v811h115v-811h-115zM381 369h115v-811h-115v811zM381 801v811h115v-811h-115z" />
<glyph unicode="&#xa7;" horiz-adv-x="1099" d="M96 94v125h119v-106q0 -95 53 -148t148 -53h254q95 0 147.5 53t52.5 148v88q0 57 -30.5 102.5t-77.5 63.5q56 14 89.5 64t33.5 122v160q0 75 -41.5 123.5t-116.5 62.5l-297 55q-145 26 -145 152v78q0 76 41.5 117.5t117.5 41.5h213q77 0 118.5 -41.5t41.5 -117.5v-94 h-119v90q0 31 -17 48t-48 17h-164q-31 0 -48.5 -17t-17.5 -48v-68q0 -55 66 -65l297 -50q103 -18 170.5 -81.5t67.5 -155.5v-193q0 -39 -14.5 -76t-29.5 -58t-40 -50q2 -2 10.5 -11.5t11 -12.5l10 -12t10.5 -14t8.5 -14t8 -16t5.5 -16.5t4 -19.5t1 -21v-152q0 -123 -82 -205 t-205 -82h-319q-123 0 -205 82t-82 205zM111 549v176q0 101 92 193q-25 23 -38 38.5t-26.5 44.5t-13.5 62v133q0 123 82 205t205 82h278q123 0 205 -82t82 -205v-106h-119v94q0 95 -53 147.5t-148 52.5h-213q-95 0 -147.5 -52.5t-52.5 -147.5v-78q0 -58 31 -105t77 -61 q-55 -10 -89 -62.5t-34 -125.5v-158q0 -75 41.5 -123.5t116.5 -62.5l297 -56q145 -26 145 -151v-88q0 -77 -41.5 -118.5t-117.5 -41.5h-254q-76 0 -118 41.5t-42 118.5v106h119v-96q0 -31 17 -48.5t48 -17.5h205q31 0 48.5 17.5t17.5 48.5v74q0 55 -66 65l-297 49 q-102 18 -169.5 82t-67.5 156zM270 594v158q0 83 46.5 128t113.5 33l268 -49q146 -26 146 -151v-160q0 -83 -46.5 -127.5t-113.5 -32.5l-268 49q-146 26 -146 152zM389 598q0 -56 66 -66l215 -34q26 0 40.5 18t14.5 47v148q0 55 -66 65l-217 37q-26 0 -39.5 -19t-13.5 -49 v-147z" />
<glyph unicode="&#xa8;" horiz-adv-x="1310" d="M324 1618v254h249v-254h-249zM422 1718h53v54h-53v-54zM737 1618v254h250v-254h-250zM836 1718h53v54h-53v-54z" />
<glyph unicode="&#xa9;" horiz-adv-x="1734" d="M166 283v909q0 129 81 210t210 81h821q129 0 210 -81t81 -210v-909q0 -129 -81 -210t-210 -81h-821q-129 0 -210 81t-81 210zM246 283q0 -97 57.5 -157t153.5 -60h821q96 0 153.5 60t57.5 157v909q0 97 -57.5 157t-153.5 60h-823q-96 0 -152.5 -59.5t-56.5 -157.5v-909z M274 283v909q0 83 50 135.5t131 52.5h823q81 0 131.5 -53t50.5 -135v-909q0 -82 -50.5 -135.5t-131.5 -53.5h-821q-81 0 -132 53.5t-51 135.5zM354 283q0 -51 27.5 -83t75.5 -32h821q48 0 75 32t27 83v909q0 51 -27 83t-75 32h-821q-48 0 -75.5 -32t-27.5 -83v-909zM520 483 v508q0 97 56 153t153 56h279q97 0 153 -56t56 -153v-139h-91v129q0 63 -36 99t-99 36h-246q-63 0 -99 -36t-36 -99v-487q0 -63 36 -99.5t99 -36.5h246q63 0 99 36.5t36 99.5v129h91v-140q0 -97 -56 -153t-153 -56h-279q-97 0 -153 56t-56 153zM643 494v487q0 102 102 102 h246q103 0 103 -102v-129h-90v98q0 49 -50 49h-172q-49 0 -49 -49v-426q0 -49 49 -49h172q50 0 50 49v99h90v-129q0 -103 -103 -103h-246q-102 0 -102 103z" />
<glyph unicode="&#xaa;" horiz-adv-x="794" d="M96 936v72q0 86 50 135t137 49h28q107 0 205 -25v97q0 51 -49 51h-117q-51 0 -51 -51v-15h-180v37q0 81 55.5 137t134.5 56h197q82 0 137 -55.5t55 -137.5v-530h-182v100l-43 -47q-59 -59 -123 -59h-67q-79 0 -133 54t-54 132zM113 487v158h585v-158h-585zM279 958 q0 -40 43 -40h49q50 0 110 26l37 19v104h-199q-40 0 -40 -41v-68z" />
<glyph unicode="&#xab;" horiz-adv-x="1093" d="M31 666v106l262 373h127l-283 -404v-43l283 -403h-127zM162 721l299 424h127l-301 -426l301 -424h-127zM489 666v106l263 373h125l-281 -404v-43l281 -403h-125zM621 721l297 424h129l-302 -426l302 -424h-129z" />
<glyph unicode="&#xad;" horiz-adv-x="946" d="M104 541v112h738v-112h-738zM104 694v113h738v-113h-738z" />
<glyph unicode="&#xae;" horiz-adv-x="835" d="M102 848v504q0 54 38.5 92.5t92.5 38.5h349q67 0 109 -38t42 -93v-504q0 -54 -38.5 -92.5t-92.5 -38.5h-369q-54 0 -92.5 38.5t-38.5 92.5zM178 848q0 -22 13.5 -39.5t41.5 -17.5h369q28 0 41.5 17.5t13.5 39.5v504q0 23 -17 40t-58 17h-349q-28 0 -41.5 -17.5 t-13.5 -39.5v-504zM264 877v446h223q41 0 64.5 -23.5t23.5 -64.5v-94q0 -36 -19 -59.5t-50 -28.5l76 -176h-84l-74 176h-82v-176h-78zM344 1126h133q21 0 21 21v80q0 22 -21 22h-133v-123z" />
<glyph unicode="&#xaf;" horiz-adv-x="1253" d="M328 1630v96h565v-96h-565zM328 1763v97h565v-97h-565z" />
<glyph unicode="&#xb0;" horiz-adv-x="659" d="M117 1151v217q0 47 31.5 79t78.5 32h205q47 0 79 -32t32 -79v-217q0 -47 -32 -79t-79 -32h-205q-47 0 -78.5 32t-31.5 79zM240 1171q0 -11 7 -17.5t17 -6.5h131q11 0 18 7t7 17v177q0 10 -7 17t-18 7h-131q-10 0 -17 -7t-7 -17v-177z" />
<glyph unicode="&#xb1;" horiz-adv-x="1040" d="M115 164v102h811v-102h-811zM115 307v103h811v-103h-811zM115 782v105h385v-365h-105v260h-280zM115 928v104h280v260h105v-364h-385zM541 522v365h385v-105h-281v-260h-104zM541 928v364h104v-260h281v-104h-385z" />
<glyph unicode="&#xb4;" horiz-adv-x="849" d="M164 1610l184 295h139l-235 -295h-88zM293 1610l235 295h158l-305 -295h-88z" />
<glyph unicode="&#xb6;" horiz-adv-x="1710" d="M102 815v369q0 129 81 210t210 81h1155v-1475h-127v1356h-991q-95 0 -148 -53t-53 -148v-311q0 -95 53 -148t148 -53h475v-643h-127v524h-385q-129 0 -210 81t-81 210zM270 844v311q0 77 42 118.5t118 41.5h475v-631h-475q-76 0 -118 42t-42 118zM946 0v1315h432l2 -1315 h-127v1196h-180v-1196h-127z" />
<glyph unicode="&#xb7;" horiz-adv-x="512" d="M113 532v299h286v-299h-286zM227 653h58v58h-58v-58z" />
<glyph unicode="&#xb8;" horiz-adv-x="1157" d="M346 -307h268q25 0 25 33v20q0 33 -25 33h-231l102 221h152l-51 -102h53q79 0 125.5 -39t46.5 -113v-20q0 -74 -46.5 -113t-125.5 -39h-190z" />
<glyph unicode="&#xba;" horiz-adv-x="794" d="M96 936v356q0 78 55 132.5t134 54.5h225q79 0 133.5 -54.5t54.5 -132.5v-356q0 -79 -54 -132.5t-134 -53.5h-225q-80 0 -134.5 53.5t-54.5 132.5zM113 487v158h569v-158h-569zM279 956q0 -41 38 -41h158q41 0 41 41v312q0 45 -41 45h-158q-38 0 -38 -45v-312z" />
<glyph unicode="&#xbb;" horiz-adv-x="1093" d="M31 295l301 424l-301 426h127l299 -424l-297 -426h-129zM199 1145h127l262 -373v-106l-262 -371h-125l280 403v43zM489 295l302 424l-302 426h127l299 -424l-299 -426h-127zM657 295l283 403v43l-283 404h127l263 -373v-106l-263 -371h-127z" />
<glyph unicode="&#xbf;" horiz-adv-x="1155" d="M72 -86v252q0 21 4 41t16 39t21 33t31.5 33t34 29t42.5 30t43 27.5t49.5 29.5t48.5 29l82 49q27 16 37.5 22.5t21.5 19.5t11 27v93h127v-119q0 -10 -1.5 -19t-6 -17.5t-8 -15t-12.5 -15t-14 -13t-18 -14t-19 -13.5t-23 -15t-23 -15l-180 -119q-72 -47 -104.5 -86.5 t-32.5 -97.5v-166q0 -95 52.5 -148t147.5 -53h394q95 0 147.5 53t52.5 148v139h127v-168q0 -129 -81 -210t-210 -81h-467q-129 0 -209.5 81t-80.5 210zM240 -57v166q0 46 27.5 76.5t97.5 76.5l180 119q39 26 55 38t40 34.5t33 45t9 50.5v119h127v-154q0 -20 -5 -39t-17 -38 t-23 -34t-33 -34t-36 -31t-43 -31.5t-44 -28.5t-48 -30t-46 -29l-78 -49q-4 -2 -11.5 -7t-11 -7t-9.5 -6.5t-9 -6.5t-8 -6t-7 -7t-5 -7t-4.5 -7t-2.5 -7.5t-1 -8.5v-129q0 -69 69 -69h320q69 0 69 69v111h127v-139q0 -77 -41.5 -118.5t-117.5 -41.5h-394q-76 0 -117.5 41.5 t-41.5 118.5zM514 811v295h295v-295h-295zM633 930h57v57h-57v-57z" />
<glyph unicode="&#xc0;" d="M33 0l475 1475h344l475 -1475h-137l-416 1356h-188l-422 -1356h-131zM203 0l139 451h672l137 -451h-141l-97 332h-477l-98 -332h-135zM311 1905h158l236 -295h-89zM354 492l256 823h140l251 -823h-647zM510 1905h139l185 -295h-89zM518 610h316l-156 541z" />
<glyph unicode="&#xc1;" d="M33 0l475 1475h344l475 -1475h-137l-416 1356h-188l-422 -1356h-131zM203 0l139 451h672l137 -451h-141l-97 332h-477l-98 -332h-135zM354 492l256 823h140l251 -823h-647zM518 610h316l-156 541zM526 1610l185 295h139l-236 -295h-88zM655 1610l236 295h158l-306 -295 h-88z" />
<glyph unicode="&#xc2;" d="M33 0l475 1475h344l475 -1475h-137l-416 1356h-188l-422 -1356h-131zM203 0l139 451h672l137 -451h-141l-97 332h-477l-98 -332h-135zM270 1610l287 266h246l287 -266h-101l-246 219h-127l-245 -219h-101zM354 492l256 823h140l251 -823h-647zM408 1610l221 188h102 l221 -188h-98l-174 141l-174 -141h-98zM518 610h316l-156 541z" />
<glyph unicode="&#xc3;" d="M33 0l475 1475h344l475 -1475h-137l-416 1356h-188l-422 -1356h-131zM203 0l139 451h672l137 -451h-141l-97 332h-477l-98 -332h-135zM354 492l256 823h140l251 -823h-647zM365 1610l41 194q17 81 120 56l299 -78l39 80h54l-56 -156l-336 90q-31 8 -45.5 1t-21.5 -34 l-43 -153h-51zM444 1610l54 157l333 -88q35 -9 47 -3t21 34l47 152h53l-45 -197q-17 -79 -118 -53l-304 82l-36 -84h-52zM518 610h316l-156 541z" />
<glyph unicode="&#xc4;" d="M33 0l475 1475h344l475 -1475h-137l-416 1356h-188l-422 -1356h-131zM203 0l139 451h672l137 -451h-141l-97 332h-477l-98 -332h-135zM348 1618v254h250v-254h-250zM354 492l256 823h140l251 -823h-647zM446 1718h54v54h-54v-54zM518 610h316l-156 541zM762 1618v254h250 v-254h-250zM860 1718h53v54h-53v-54z" />
<glyph unicode="&#xc5;" d="M33 0l475 1475h344l475 -1475h-137l-416 1356h-188l-422 -1356h-131zM203 0l139 451h672l137 -451h-141l-97 332h-477l-98 -332h-135zM354 492l256 823h140l251 -823h-647zM483 1679v217q0 26 22 48t48 22h254q26 0 48 -22t22 -48v-217q0 -26 -22 -47.5t-48 -21.5h-254 q-26 0 -48 21.5t-22 47.5zM518 610h316l-156 541zM598 1737q0 -11 7 -18t18 -7h114q11 0 18 7t7 18v102q0 11 -7 18t-18 7h-114q-11 0 -18 -7t-7 -18v-102z" />
<glyph unicode="&#xc6;" horiz-adv-x="2076" d="M6 0l744 1475h1228v-119h-1159l-672 -1356h-141zM193 0l223 451h725v-332h837v-119h-964v332h-514l-160 -332h-147zM436 492l406 823h299v-823h-705zM633 610h381v582h-103zM1182 160v573h669v-110h-542v-344h669v-119h-796zM1182 774v541h796v-119h-669v-295h542v-127 h-669z" />
<glyph unicode="&#xc7;" horiz-adv-x="1275" d="M127 283v909q0 129 81 210t210 81h467q129 0 210 -81t81 -210v-238h-127v209q0 95 -53 148t-148 53h-393q-95 0 -148 -53t-53 -148v-852q0 -95 53 -147.5t148 -52.5h393q95 0 148 52.5t53 147.5v209h127v-237q0 -129 -81 -210t-210 -81h-158l-47 -94h53q79 0 125.5 -39 t46.5 -113v-20q0 -74 -46.5 -113t-125.5 -39h-190l-103 119h269q24 0 24 33v20q0 33 -24 33h-232l98 213h-157q-129 0 -210 81t-81 210zM295 311v852q0 77 41.5 118.5t118.5 41.5h393q76 0 118 -41.5t42 -118.5v-209h-127v181q0 69 -70 69h-319q-70 0 -70 -69v-795 q0 -70 70 -70h319q70 0 70 70v180h127v-209q0 -76 -41.5 -117.5t-118.5 -41.5h-393q-77 0 -118.5 41.5t-41.5 117.5z" />
<glyph unicode="&#xc8;" horiz-adv-x="1224" d="M162 0v1475h964v-119h-837v-1237h837v-119h-964zM276 1905h158l236 -295h-88zM330 160v573h669v-119h-542v-335h669v-119h-796zM330 774v541h796v-119h-669v-303h542v-119h-669zM475 1905h139l185 -295h-88z" />
<glyph unicode="&#xc9;" horiz-adv-x="1224" d="M162 0v1475h964v-119h-837v-1237h837v-119h-964zM330 160v573h669v-119h-542v-335h669v-119h-796zM330 774v541h796v-119h-669v-303h542v-119h-669zM492 1610l184 295h139l-235 -295h-88zM621 1610l235 295h158l-305 -295h-88z" />
<glyph unicode="&#xca;" horiz-adv-x="1224" d="M162 0v1475h964v-119h-837v-1237h837v-119h-964zM236 1610l286 266h246l287 -266h-101l-245 219h-127l-246 -219h-100zM330 160v573h669v-119h-542v-335h669v-119h-796zM330 774v541h796v-119h-669v-303h542v-119h-669zM373 1610l221 188h102l222 -188h-99l-174 141 l-174 -141h-98z" />
<glyph unicode="&#xcb;" horiz-adv-x="1224" d="M162 0v1475h964v-119h-837v-1237h837v-119h-964zM313 1618v254h250v-254h-250zM330 160v573h669v-119h-542v-335h669v-119h-796zM330 774v541h796v-119h-669v-303h542v-119h-669zM412 1718h53v54h-53v-54zM727 1618v254h250v-254h-250zM825 1718h54v54h-54v-54z" />
<glyph unicode="&#xcc;" horiz-adv-x="618" d="M-59 1905h157l236 -295h-88zM139 1905h140l184 -295h-88zM162 0v1475h127v-1475h-127zM330 0v1475h127v-1475h-127z" />
<glyph unicode="&#xcd;" horiz-adv-x="618" d="M156 1610l184 295h139l-235 -295h-88zM162 0v1475h127v-1475h-127zM285 1610l235 295h158l-305 -295h-88zM330 0v1475h127v-1475h-127z" />
<glyph unicode="&#xce;" horiz-adv-x="618" d="M-100 1610l286 266h246l287 -266h-101l-245 219h-127l-246 -219h-100zM37 1610l221 188h102l222 -188h-99l-174 141l-174 -141h-98zM162 0v1475h127v-1475h-127zM330 0v1475h127v-1475h-127z" />
<glyph unicode="&#xcf;" horiz-adv-x="618" d="M-23 1618v254h250v-254h-250zM76 1718h53v54h-53v-54zM162 0v1475h127v-1475h-127zM330 0v1475h127v-1475h-127zM391 1618v254h250v-254h-250zM489 1718h54v54h-54v-54z" />
<glyph unicode="&#xd0;" horiz-adv-x="1331" d="M-2 602v119h274v-602h605q95 0 147.5 52.5t52.5 147.5v836q0 95 -52.5 148t-147.5 53h-605v-594h-274v119h147v594h768q129 0 210 -81t81 -210v-893q0 -129 -81 -210t-210 -81h-768v602h-147zM313 160v561h275v-119h-148v-323h400q69 0 69 69v778q0 70 -69 70h-400v-315 h148v-119h-275v553h564q76 0 117.5 -41.5t41.5 -118.5v-836q0 -77 -41 -118t-118 -41h-564z" />
<glyph unicode="&#xd1;" horiz-adv-x="1460" d="M162 0v1475h317l543 -1006v1006h117v-1315h-70l-657 1196h-131v-1356h-119zM322 0v1315h69l658 -1196h131v1356h118v-1475h-317l-543 1006v-1006h-116zM416 1610l41 194q17 81 121 56l299 -78l38 80h54l-56 -156l-335 90q-31 8 -46 1t-22 -34l-43 -153h-51zM496 1610 l53 157l334 -88q35 -8 46.5 -2.5t20.5 33.5l47 152h54l-45 -197q-17 -80 -119 -53l-303 82l-37 -84h-51z" />
<glyph unicode="&#xd2;" horiz-adv-x="1329" d="M127 283v909q0 129 81 210t210 81h493q129 0 210 -81t81 -210v-909q0 -129 -81 -210t-210 -81h-493q-129 0 -210 81t-81 210zM254 311q0 -95 53 -147.5t148 -52.5h419q95 0 148 52.5t53 147.5v852q0 95 -53 148t-148 53h-419q-95 0 -148 -53t-53 -148v-852zM295 311v852 q0 77 41.5 118.5t118.5 41.5h419q76 0 118 -41.5t42 -118.5v-852q0 -76 -41.5 -117.5t-118.5 -41.5h-419q-77 0 -118.5 41.5t-41.5 117.5zM297 1905h158l235 -295h-88zM422 340q0 -70 70 -70h346q69 0 69 70v795q0 69 -69 69h-346q-70 0 -70 -69v-795zM496 1905h139 l184 -295h-88z" />
<glyph unicode="&#xd3;" horiz-adv-x="1329" d="M127 283v909q0 129 81 210t210 81h493q129 0 210 -81t81 -210v-909q0 -129 -81 -210t-210 -81h-493q-129 0 -210 81t-81 210zM254 311q0 -95 53 -147.5t148 -52.5h419q95 0 148 52.5t53 147.5v852q0 95 -53 148t-148 53h-419q-95 0 -148 -53t-53 -148v-852zM295 311v852 q0 77 41.5 118.5t118.5 41.5h419q76 0 118 -41.5t42 -118.5v-852q0 -76 -41.5 -117.5t-118.5 -41.5h-419q-77 0 -118.5 41.5t-41.5 117.5zM422 340q0 -70 70 -70h346q69 0 69 70v795q0 69 -69 69h-346q-70 0 -70 -69v-795zM512 1610l184 295h140l-236 -295h-88zM641 1610 l236 295h157l-305 -295h-88z" />
<glyph unicode="&#xd4;" horiz-adv-x="1329" d="M127 283v909q0 129 81 210t210 81h493q129 0 210 -81t81 -210v-909q0 -129 -81 -210t-210 -81h-493q-129 0 -210 81t-81 210zM254 311q0 -95 53 -147.5t148 -52.5h419q95 0 148 52.5t53 147.5v852q0 95 -53 148t-148 53h-419q-95 0 -148 -53t-53 -148v-852zM256 1610 l287 266h245l287 -266h-100l-246 219h-127l-246 -219h-100zM295 311v852q0 77 41.5 118.5t118.5 41.5h419q76 0 118 -41.5t42 -118.5v-852q0 -76 -41.5 -117.5t-118.5 -41.5h-419q-77 0 -118.5 41.5t-41.5 117.5zM393 1610l221 188h103l221 -188h-98l-174 141l-174 -141h-99 zM422 340q0 -70 70 -70h346q69 0 69 70v795q0 69 -69 69h-346q-70 0 -70 -69v-795z" />
<glyph unicode="&#xd5;" horiz-adv-x="1329" d="M127 283v909q0 129 81 210t210 81h493q129 0 210 -81t81 -210v-909q0 -129 -81 -210t-210 -81h-493q-129 0 -210 81t-81 210zM254 311q0 -95 53 -147.5t148 -52.5h419q95 0 148 52.5t53 147.5v852q0 95 -53 148t-148 53h-419q-95 0 -148 -53t-53 -148v-852zM295 311v852 q0 77 41.5 118.5t118.5 41.5h419q76 0 118 -41.5t42 -118.5v-852q0 -76 -41.5 -117.5t-118.5 -41.5h-419q-77 0 -118.5 41.5t-41.5 117.5zM350 1610l41 194q17 81 121 56l299 -78l39 80h53l-55 -156l-336 90q-31 8 -46 1t-22 -34l-43 -153h-51zM422 340q0 -70 70 -70h346 q69 0 69 70v795q0 69 -69 69h-346q-70 0 -70 -69v-795zM430 1610l53 157l334 -88q35 -9 47 -3t21 34l47 152h53l-45 -197q-17 -80 -119 -53l-303 82l-37 -84h-51z" />
<glyph unicode="&#xd6;" horiz-adv-x="1329" d="M127 283v909q0 129 81 210t210 81h493q129 0 210 -81t81 -210v-909q0 -129 -81 -210t-210 -81h-493q-129 0 -210 81t-81 210zM254 311q0 -95 53 -147.5t148 -52.5h419q95 0 148 52.5t53 147.5v852q0 95 -53 148t-148 53h-419q-95 0 -148 -53t-53 -148v-852zM295 311v852 q0 77 41.5 118.5t118.5 41.5h419q76 0 118 -41.5t42 -118.5v-852q0 -76 -41.5 -117.5t-118.5 -41.5h-419q-77 0 -118.5 41.5t-41.5 117.5zM334 1618v254h250v-254h-250zM422 340q0 -70 70 -70h346q69 0 69 70v795q0 69 -69 69h-346q-70 0 -70 -69v-795zM432 1718h53v54h-53 v-54zM748 1618v254h249v-254h-249zM846 1718h53v54h-53v-54z" />
<glyph unicode="&#xd7;" horiz-adv-x="1040" d="M127 455l227 229l-227 227l70 70l297 -297l-297 -299zM223 358l299 297l297 -297l-69 -69l-228 227l-229 -227zM225 1010l68 67l229 -227l228 227l69 -69l-297 -297zM549 682l297 299l69 -70l-227 -227l227 -229l-67 -68z" />
<glyph unicode="&#xd8;" horiz-adv-x="1337" d="M127 283v909q0 129 81 210t210 81h502q129 0 209.5 -81t80.5 -210v-909q0 -129 -80.5 -210t-209.5 -81h-502q-129 0 -210 81t-81 210zM254 311q0 -95 53 -147.5t148 -52.5h428q95 0 147.5 52.5t52.5 147.5v852q0 95 -52.5 148t-147.5 53h-428q-95 0 -148 -53t-53 -148 v-852zM295 311q0 -112 84 -147l539 1157q-10 2 -35 2h-428q-77 0 -118.5 -41.5t-41.5 -118.5v-852zM420 154q10 -2 35 -2h428q77 0 118 41t41 118v852q0 113 -84 148zM422 512v618q0 70 70 70h251zM586 274l329 707v-637q0 -70 -69 -70h-260z" />
<glyph unicode="&#xd9;" horiz-adv-x="1331" d="M139 283v1192h127v-1164q0 -95 53 -147.5t148 -52.5h397q95 0 148 52.5t53 147.5v1164h127v-1192q0 -129 -81 -210t-210 -81h-471q-129 0 -210 81t-81 210zM297 1905h158l235 -295h-88zM307 311v1164h127v-1135q0 -70 70 -70h323q70 0 70 70v1135h127v-1164 q0 -76 -41.5 -117.5t-118.5 -41.5h-397q-77 0 -118.5 41.5t-41.5 117.5zM496 1905h139l184 -295h-88z" />
<glyph unicode="&#xda;" horiz-adv-x="1331" d="M139 283v1192h127v-1164q0 -95 53 -147.5t148 -52.5h397q95 0 148 52.5t53 147.5v1164h127v-1192q0 -129 -81 -210t-210 -81h-471q-129 0 -210 81t-81 210zM307 311v1164h127v-1135q0 -70 70 -70h323q70 0 70 70v1135h127v-1164q0 -76 -41.5 -117.5t-118.5 -41.5h-397 q-77 0 -118.5 41.5t-41.5 117.5zM512 1610l184 295h140l-236 -295h-88zM641 1610l236 295h157l-305 -295h-88z" />
<glyph unicode="&#xdb;" horiz-adv-x="1331" d="M139 283v1192h127v-1164q0 -95 53 -147.5t148 -52.5h397q95 0 148 52.5t53 147.5v1164h127v-1192q0 -129 -81 -210t-210 -81h-471q-129 0 -210 81t-81 210zM256 1610l287 266h245l287 -266h-100l-246 219h-127l-246 -219h-100zM307 311v1164h127v-1135q0 -70 70 -70h323 q70 0 70 70v1135h127v-1164q0 -76 -41.5 -117.5t-118.5 -41.5h-397q-77 0 -118.5 41.5t-41.5 117.5zM393 1610l221 188h103l221 -188h-98l-174 141l-174 -141h-99z" />
<glyph unicode="&#xdc;" horiz-adv-x="1331" d="M139 283v1192h127v-1164q0 -95 53 -147.5t148 -52.5h397q95 0 148 52.5t53 147.5v1164h127v-1192q0 -129 -81 -210t-210 -81h-471q-129 0 -210 81t-81 210zM307 311v1164h127v-1135q0 -70 70 -70h323q70 0 70 70v1135h127v-1164q0 -76 -41.5 -117.5t-118.5 -41.5h-397 q-77 0 -118.5 41.5t-41.5 117.5zM334 1618v254h250v-254h-250zM432 1718h53v54h-53v-54zM748 1618v254h249v-254h-249zM846 1718h53v54h-53v-54z" />
<glyph unicode="&#xdd;" horiz-adv-x="1228" d="M12 1475h140l442 -949v-526h-127v510zM195 1475h141l278 -631l279 631h139l-418 -902zM461 1610l184 295h139l-235 -295h-88zM590 1610l235 295h158l-305 -295h-88zM635 0v526l440 949h142l-455 -965v-510h-127z" />
<glyph unicode="&#xde;" horiz-adv-x="1282" d="M162 0v1475h127v-1475h-127zM330 0v389h549q95 0 147.5 53t52.5 148v311q0 95 -52.5 148t-147.5 53h-549v373h127v-254h458q129 0 210 -81t81 -210v-369q0 -129 -81 -210t-210 -81h-458v-270h-127zM330 430v631h549q76 0 117.5 -41.5t41.5 -118.5v-311 q0 -77 -41.5 -118.5t-117.5 -41.5h-549zM457 549h385q69 0 69 69v254q0 70 -69 70h-385v-393z" />
<glyph unicode="&#xdf;" horiz-adv-x="2560" d="M121 283v188h123v-160q0 -95 52.5 -147.5t147.5 -52.5h390q95 0 147.5 52.5t52.5 147.5v211q0 75 -32.5 117t-104.5 61l-483 125q-69 19 -97 51.5t-28 92.5v194q0 77 41.5 118.5t118.5 41.5h364q77 0 118.5 -41.5t41.5 -118.5v-143h-123v115q0 69 -70 69h-295 q-69 0 -69 -69v-140q0 -32 16 -46.5t53 -22.5l381 -82q130 -28 212.5 -103.5t82.5 -191.5v-266q0 -129 -81 -210t-210 -81h-458q-129 0 -210 81t-81 210zM121 942v250q0 129 81 210t210 81h434q129 0 210 -81t81 -210v-172h-123v143q0 95 -53 148t-148 53h-364 q-95 0 -148 -53t-53 -148v-194q0 -83 37.5 -122t128.5 -63l483 -125q96 -23 96 -137v-211q0 -77 -41.5 -118t-117.5 -41h-390q-76 0 -117.5 41t-41.5 118v160h123v-131q0 -70 69 -70h320q69 0 69 70v156q0 32 -16 46.5t-53 22.5l-381 82q-130 28 -212.5 103.5t-82.5 191.5z M1401 283v188h123v-160q0 -95 52.5 -147.5t147.5 -52.5h390q95 0 147.5 52.5t52.5 147.5v211q0 75 -32.5 117t-104.5 61l-483 125q-69 19 -97 51.5t-28 92.5v194q0 77 41.5 118.5t118.5 41.5h364q77 0 118.5 -41.5t41.5 -118.5v-143h-123v115q0 69 -70 69h-295 q-69 0 -69 -69v-140q0 -32 16 -46.5t53 -22.5l381 -82q130 -28 212.5 -103.5t82.5 -191.5v-266q0 -129 -81 -210t-210 -81h-458q-129 0 -210 81t-81 210zM1401 942v250q0 129 81 210t210 81h434q129 0 210 -81t81 -210v-172h-123v143q0 95 -53 148t-148 53h-364 q-95 0 -148 -53t-53 -148v-194q0 -83 37.5 -122t128.5 -63l483 -125q96 -23 96 -137v-211q0 -77 -41.5 -118t-117.5 -41h-390q-76 0 -117.5 41t-41.5 118v160h123v-131q0 -70 69 -70h320q69 0 69 70v156q0 32 -16 46.5t-53 22.5l-381 82q-130 28 -212.5 103.5t-82.5 191.5z " />
<glyph unicode="&#xe0;" d="M33 0l475 1475h344l475 -1475h-137l-416 1356h-188l-422 -1356h-131zM203 0l139 451h672l137 -451h-141l-97 332h-477l-98 -332h-135zM311 1905h158l236 -295h-89zM354 492l256 823h140l251 -823h-647zM510 1905h139l185 -295h-89zM518 610h316l-156 541z" />
<glyph unicode="&#xe1;" d="M33 0l475 1475h344l475 -1475h-137l-416 1356h-188l-422 -1356h-131zM203 0l139 451h672l137 -451h-141l-97 332h-477l-98 -332h-135zM354 492l256 823h140l251 -823h-647zM518 610h316l-156 541zM526 1610l185 295h139l-236 -295h-88zM655 1610l236 295h158l-306 -295 h-88z" />
<glyph unicode="&#xe2;" d="M33 0l475 1475h344l475 -1475h-137l-416 1356h-188l-422 -1356h-131zM203 0l139 451h672l137 -451h-141l-97 332h-477l-98 -332h-135zM270 1610l287 266h246l287 -266h-101l-246 219h-127l-245 -219h-101zM354 492l256 823h140l251 -823h-647zM408 1610l221 188h102 l221 -188h-98l-174 141l-174 -141h-98zM518 610h316l-156 541z" />
<glyph unicode="&#xe3;" d="M33 0l475 1475h344l475 -1475h-137l-416 1356h-188l-422 -1356h-131zM203 0l139 451h672l137 -451h-141l-97 332h-477l-98 -332h-135zM354 492l256 823h140l251 -823h-647zM365 1610l41 194q17 81 120 56l299 -78l39 80h54l-56 -156l-336 90q-31 8 -45.5 1t-21.5 -34 l-43 -153h-51zM444 1610l54 157l333 -88q35 -9 47 -3t21 34l47 152h53l-45 -197q-17 -79 -118 -53l-304 82l-36 -84h-52zM518 610h316l-156 541z" />
<glyph unicode="&#xe4;" d="M33 0l475 1475h344l475 -1475h-137l-416 1356h-188l-422 -1356h-131zM203 0l139 451h672l137 -451h-141l-97 332h-477l-98 -332h-135zM348 1618v254h250v-254h-250zM354 492l256 823h140l251 -823h-647zM446 1718h54v54h-54v-54zM518 610h316l-156 541zM762 1618v254h250 v-254h-250zM860 1718h53v54h-53v-54z" />
<glyph unicode="&#xe5;" d="M33 0l475 1475h344l475 -1475h-137l-416 1356h-188l-422 -1356h-131zM203 0l139 451h672l137 -451h-141l-97 332h-477l-98 -332h-135zM354 492l256 823h140l251 -823h-647zM483 1679v217q0 26 22 48t48 22h254q26 0 48 -22t22 -48v-217q0 -26 -22 -47.5t-48 -21.5h-254 q-26 0 -48 21.5t-22 47.5zM518 610h316l-156 541zM598 1737q0 -11 7 -18t18 -7h114q11 0 18 7t7 18v102q0 11 -7 18t-18 7h-114q-11 0 -18 -7t-7 -18v-102z" />
<glyph unicode="&#xe6;" horiz-adv-x="2076" d="M6 0l744 1475h1228v-119h-1159l-672 -1356h-141zM193 0l223 451h725v-332h837v-119h-964v332h-514l-160 -332h-147zM436 492l406 823h299v-823h-705zM633 610h381v582h-103zM1182 160v573h669v-110h-542v-344h669v-119h-796zM1182 774v541h796v-119h-669v-295h542v-127 h-669z" />
<glyph unicode="&#xe7;" horiz-adv-x="1275" d="M127 283v909q0 129 81 210t210 81h467q129 0 210 -81t81 -210v-238h-127v209q0 95 -53 148t-148 53h-393q-95 0 -148 -53t-53 -148v-852q0 -95 53 -147.5t148 -52.5h393q95 0 148 52.5t53 147.5v209h127v-237q0 -129 -81 -210t-210 -81h-158l-47 -94h53q79 0 125.5 -39 t46.5 -113v-20q0 -74 -46.5 -113t-125.5 -39h-190l-103 119h269q24 0 24 33v20q0 33 -24 33h-232l98 213h-157q-129 0 -210 81t-81 210zM295 311v852q0 77 41.5 118.5t118.5 41.5h393q76 0 118 -41.5t42 -118.5v-209h-127v181q0 69 -70 69h-319q-70 0 -70 -69v-795 q0 -70 70 -70h319q70 0 70 70v180h127v-209q0 -76 -41.5 -117.5t-118.5 -41.5h-393q-77 0 -118.5 41.5t-41.5 117.5z" />
<glyph unicode="&#xe8;" horiz-adv-x="1224" d="M162 0v1475h964v-119h-837v-1237h837v-119h-964zM276 1905h158l236 -295h-88zM330 160v573h669v-119h-542v-335h669v-119h-796zM330 774v541h796v-119h-669v-303h542v-119h-669zM475 1905h139l185 -295h-88z" />
<glyph unicode="&#xe9;" horiz-adv-x="1224" d="M162 0v1475h964v-119h-837v-1237h837v-119h-964zM330 160v573h669v-119h-542v-335h669v-119h-796zM330 774v541h796v-119h-669v-303h542v-119h-669zM492 1610l184 295h139l-235 -295h-88zM621 1610l235 295h158l-305 -295h-88z" />
<glyph unicode="&#xea;" horiz-adv-x="1224" d="M162 0v1475h964v-119h-837v-1237h837v-119h-964zM236 1610l286 266h246l287 -266h-101l-245 219h-127l-246 -219h-100zM330 160v573h669v-119h-542v-335h669v-119h-796zM330 774v541h796v-119h-669v-303h542v-119h-669zM373 1610l221 188h102l222 -188h-99l-174 141 l-174 -141h-98z" />
<glyph unicode="&#xeb;" horiz-adv-x="1224" d="M162 0v1475h964v-119h-837v-1237h837v-119h-964zM313 1618v254h250v-254h-250zM330 160v573h669v-119h-542v-335h669v-119h-796zM330 774v541h796v-119h-669v-303h542v-119h-669zM412 1718h53v54h-53v-54zM727 1618v254h250v-254h-250zM825 1718h54v54h-54v-54z" />
<glyph unicode="&#xec;" horiz-adv-x="618" d="M-59 1905h157l236 -295h-88zM139 1905h140l184 -295h-88zM162 0v1475h127v-1475h-127zM330 0v1475h127v-1475h-127z" />
<glyph unicode="&#xed;" horiz-adv-x="618" d="M156 1610l184 295h139l-235 -295h-88zM162 0v1475h127v-1475h-127zM285 1610l235 295h158l-305 -295h-88zM330 0v1475h127v-1475h-127z" />
<glyph unicode="&#xee;" horiz-adv-x="618" d="M-100 1610l286 266h246l287 -266h-101l-245 219h-127l-246 -219h-100zM37 1610l221 188h102l222 -188h-99l-174 141l-174 -141h-98zM162 0v1475h127v-1475h-127zM330 0v1475h127v-1475h-127z" />
<glyph unicode="&#xef;" horiz-adv-x="618" d="M-23 1618v254h250v-254h-250zM76 1718h53v54h-53v-54zM162 0v1475h127v-1475h-127zM330 0v1475h127v-1475h-127zM391 1618v254h250v-254h-250zM489 1718h54v54h-54v-54z" />
<glyph unicode="&#xf0;" horiz-adv-x="1331" d="M-2 602v119h274v-602h605q95 0 147.5 52.5t52.5 147.5v836q0 95 -52.5 148t-147.5 53h-605v-594h-274v119h147v594h768q129 0 210 -81t81 -210v-893q0 -129 -81 -210t-210 -81h-768v602h-147zM313 160v561h275v-119h-148v-323h400q69 0 69 69v778q0 70 -69 70h-400v-315 h148v-119h-275v553h564q76 0 117.5 -41.5t41.5 -118.5v-836q0 -77 -41 -118t-118 -41h-564z" />
<glyph unicode="&#xf1;" horiz-adv-x="1460" d="M162 0v1475h317l543 -1006v1006h117v-1315h-70l-657 1196h-131v-1356h-119zM322 0v1315h69l658 -1196h131v1356h118v-1475h-317l-543 1006v-1006h-116zM416 1610l41 194q17 81 121 56l299 -78l38 80h54l-56 -156l-335 90q-31 8 -46 1t-22 -34l-43 -153h-51zM496 1610 l53 157l334 -88q35 -8 46.5 -2.5t20.5 33.5l47 152h54l-45 -197q-17 -80 -119 -53l-303 82l-37 -84h-51z" />
<glyph unicode="&#xf2;" horiz-adv-x="1329" d="M127 283v909q0 129 81 210t210 81h493q129 0 210 -81t81 -210v-909q0 -129 -81 -210t-210 -81h-493q-129 0 -210 81t-81 210zM254 311q0 -95 53 -147.5t148 -52.5h419q95 0 148 52.5t53 147.5v852q0 95 -53 148t-148 53h-419q-95 0 -148 -53t-53 -148v-852zM295 311v852 q0 77 41.5 118.5t118.5 41.5h419q76 0 118 -41.5t42 -118.5v-852q0 -76 -41.5 -117.5t-118.5 -41.5h-419q-77 0 -118.5 41.5t-41.5 117.5zM297 1905h158l235 -295h-88zM422 340q0 -70 70 -70h346q69 0 69 70v795q0 69 -69 69h-346q-70 0 -70 -69v-795zM496 1905h139 l184 -295h-88z" />
<glyph unicode="&#xf3;" horiz-adv-x="1329" d="M127 283v909q0 129 81 210t210 81h493q129 0 210 -81t81 -210v-909q0 -129 -81 -210t-210 -81h-493q-129 0 -210 81t-81 210zM254 311q0 -95 53 -147.5t148 -52.5h419q95 0 148 52.5t53 147.5v852q0 95 -53 148t-148 53h-419q-95 0 -148 -53t-53 -148v-852zM295 311v852 q0 77 41.5 118.5t118.5 41.5h419q76 0 118 -41.5t42 -118.5v-852q0 -76 -41.5 -117.5t-118.5 -41.5h-419q-77 0 -118.5 41.5t-41.5 117.5zM422 340q0 -70 70 -70h346q69 0 69 70v795q0 69 -69 69h-346q-70 0 -70 -69v-795zM512 1610l184 295h140l-236 -295h-88zM641 1610 l236 295h157l-305 -295h-88z" />
<glyph unicode="&#xf4;" horiz-adv-x="1329" d="M127 283v909q0 129 81 210t210 81h493q129 0 210 -81t81 -210v-909q0 -129 -81 -210t-210 -81h-493q-129 0 -210 81t-81 210zM254 311q0 -95 53 -147.5t148 -52.5h419q95 0 148 52.5t53 147.5v852q0 95 -53 148t-148 53h-419q-95 0 -148 -53t-53 -148v-852zM256 1610 l287 266h245l287 -266h-100l-246 219h-127l-246 -219h-100zM295 311v852q0 77 41.5 118.5t118.5 41.5h419q76 0 118 -41.5t42 -118.5v-852q0 -76 -41.5 -117.5t-118.5 -41.5h-419q-77 0 -118.5 41.5t-41.5 117.5zM393 1610l221 188h103l221 -188h-98l-174 141l-174 -141h-99 zM422 340q0 -70 70 -70h346q69 0 69 70v795q0 69 -69 69h-346q-70 0 -70 -69v-795z" />
<glyph unicode="&#xf5;" horiz-adv-x="1329" d="M127 283v909q0 129 81 210t210 81h493q129 0 210 -81t81 -210v-909q0 -129 -81 -210t-210 -81h-493q-129 0 -210 81t-81 210zM254 311q0 -95 53 -147.5t148 -52.5h419q95 0 148 52.5t53 147.5v852q0 95 -53 148t-148 53h-419q-95 0 -148 -53t-53 -148v-852zM295 311v852 q0 77 41.5 118.5t118.5 41.5h419q76 0 118 -41.5t42 -118.5v-852q0 -76 -41.5 -117.5t-118.5 -41.5h-419q-77 0 -118.5 41.5t-41.5 117.5zM350 1610l41 194q17 81 121 56l299 -78l39 80h53l-55 -156l-336 90q-31 8 -46 1t-22 -34l-43 -153h-51zM422 340q0 -70 70 -70h346 q69 0 69 70v795q0 69 -69 69h-346q-70 0 -70 -69v-795zM430 1610l53 157l334 -88q35 -9 47 -3t21 34l47 152h53l-45 -197q-17 -80 -119 -53l-303 82l-37 -84h-51z" />
<glyph unicode="&#xf6;" horiz-adv-x="1329" d="M127 283v909q0 129 81 210t210 81h493q129 0 210 -81t81 -210v-909q0 -129 -81 -210t-210 -81h-493q-129 0 -210 81t-81 210zM254 311q0 -95 53 -147.5t148 -52.5h419q95 0 148 52.5t53 147.5v852q0 95 -53 148t-148 53h-419q-95 0 -148 -53t-53 -148v-852zM295 311v852 q0 77 41.5 118.5t118.5 41.5h419q76 0 118 -41.5t42 -118.5v-852q0 -76 -41.5 -117.5t-118.5 -41.5h-419q-77 0 -118.5 41.5t-41.5 117.5zM334 1618v254h250v-254h-250zM422 340q0 -70 70 -70h346q69 0 69 70v795q0 69 -69 69h-346q-70 0 -70 -69v-795zM432 1718h53v54h-53 v-54zM748 1618v254h249v-254h-249zM846 1718h53v54h-53v-54z" />
<glyph unicode="&#xf7;" horiz-adv-x="1040" d="M74 621v116h893v-116h-893zM74 778v117h893v-117h-893zM385 207v270h270v-270h-270zM385 1038v271h270v-271h-270zM492 313h57v58h-57v-58zM492 1145h57v57h-57v-57z" />
<glyph unicode="&#xf8;" horiz-adv-x="1337" d="M127 283v909q0 129 81 210t210 81h502q129 0 209.5 -81t80.5 -210v-909q0 -129 -80.5 -210t-209.5 -81h-502q-129 0 -210 81t-81 210zM254 311q0 -95 53 -147.5t148 -52.5h428q95 0 147.5 52.5t52.5 147.5v852q0 95 -52.5 148t-147.5 53h-428q-95 0 -148 -53t-53 -148 v-852zM295 311q0 -112 84 -147l539 1157q-10 2 -35 2h-428q-77 0 -118.5 -41.5t-41.5 -118.5v-852zM420 154q10 -2 35 -2h428q77 0 118 41t41 118v852q0 113 -81 148zM422 512v618q0 70 70 70h251zM586 274l329 707v-637q0 -70 -69 -70h-260z" />
<glyph unicode="&#xf9;" horiz-adv-x="1331" d="M139 283v1192h127v-1164q0 -95 53 -147.5t148 -52.5h397q95 0 148 52.5t53 147.5v1164h127v-1192q0 -129 -81 -210t-210 -81h-471q-129 0 -210 81t-81 210zM297 1905h158l235 -295h-88zM307 311v1164h127v-1135q0 -70 70 -70h323q70 0 70 70v1135h127v-1164 q0 -76 -41.5 -117.5t-118.5 -41.5h-397q-77 0 -118.5 41.5t-41.5 117.5zM496 1905h139l184 -295h-88z" />
<glyph unicode="&#xfa;" horiz-adv-x="1331" d="M139 283v1192h127v-1164q0 -95 53 -147.5t148 -52.5h397q95 0 148 52.5t53 147.5v1164h127v-1192q0 -129 -81 -210t-210 -81h-471q-129 0 -210 81t-81 210zM307 311v1164h127v-1135q0 -70 70 -70h323q70 0 70 70v1135h127v-1164q0 -76 -41.5 -117.5t-118.5 -41.5h-397 q-77 0 -118.5 41.5t-41.5 117.5zM512 1610l184 295h140l-236 -295h-88zM641 1610l236 295h157l-305 -295h-88z" />
<glyph unicode="&#xfb;" horiz-adv-x="1331" d="M139 283v1192h127v-1164q0 -95 53 -147.5t148 -52.5h397q95 0 148 52.5t53 147.5v1164h127v-1192q0 -129 -81 -210t-210 -81h-471q-129 0 -210 81t-81 210zM256 1610l287 266h245l287 -266h-100l-246 219h-127l-246 -219h-100zM307 311v1164h127v-1135q0 -70 70 -70h323 q70 0 70 70v1135h127v-1164q0 -76 -41.5 -117.5t-118.5 -41.5h-397q-77 0 -118.5 41.5t-41.5 117.5zM393 1610l221 188h103l221 -188h-98l-174 141l-174 -141h-99z" />
<glyph unicode="&#xfc;" horiz-adv-x="1331" d="M139 283v1192h127v-1164q0 -95 53 -147.5t148 -52.5h397q95 0 148 52.5t53 147.5v1164h127v-1192q0 -129 -81 -210t-210 -81h-471q-129 0 -210 81t-81 210zM307 311v1164h127v-1135q0 -70 70 -70h323q70 0 70 70v1135h127v-1164q0 -76 -41.5 -117.5t-118.5 -41.5h-397 q-77 0 -118.5 41.5t-41.5 117.5zM334 1618v254h250v-254h-250zM432 1718h53v54h-53v-54zM748 1618v254h249v-254h-249zM846 1718h53v54h-53v-54z" />
<glyph unicode="&#xfd;" horiz-adv-x="1228" d="M12 1475h140l442 -949v-526h-127v510zM195 1475h141l278 -631l279 631h139l-418 -902zM461 1610l184 295h139l-235 -295h-88zM590 1610l235 295h158l-305 -295h-88zM635 0v526l440 949h142l-455 -965v-510h-127z" />
<glyph unicode="&#xfe;" horiz-adv-x="1282" d="M162 0v1475h127v-1475h-127zM330 0v389h549q95 0 147.5 53t52.5 148v311q0 95 -52.5 148t-147.5 53h-549v373h127v-254h458q129 0 210 -81t81 -210v-369q0 -129 -81 -210t-210 -81h-458v-270h-127zM330 430v631h549q76 0 117.5 -41.5t41.5 -118.5v-311 q0 -77 -41.5 -118.5t-117.5 -41.5h-549zM457 549h385q69 0 69 69v254q0 70 -69 70h-385v-393z" />
<glyph unicode="&#xff;" horiz-adv-x="1228" d="M12 1475h140l442 -949v-526h-127v510zM195 1475h141l278 -631l279 631h139l-418 -902zM283 1618v254h249v-254h-249zM381 1718h53v54h-53v-54zM635 0v526l440 949h142l-455 -965v-510h-127zM696 1618v254h250v-254h-250zM795 1718h53v54h-53v-54z" />
<glyph unicode="&#x152;" horiz-adv-x="1978" d="M127 291v893q0 129 81 210t210 81h1462v-119h-1425q-95 0 -148 -53t-53 -148v-836q0 -95 53 -147.5t148 -52.5h1425v-119h-1462q-129 0 -210 81t-81 210zM295 319v836q0 77 41.5 118.5t118.5 41.5h587v-1155h-587q-77 0 -118.5 41.5t-41.5 117.5zM422 348q0 -69 70 -69 h423v917h-423q-70 0 -70 -70v-778zM1083 160v569h670v-119h-543v-331h670v-119h-797zM1083 770v545h797v-119h-670v-307h543v-119h-670z" />
<glyph unicode="&#x153;" horiz-adv-x="1978" d="M127 291v893q0 129 81 210t210 81h1462v-119h-1425q-95 0 -148 -53t-53 -148v-836q0 -95 53 -147.5t148 -52.5h1425v-119h-1462q-129 0 -210 81t-81 210zM295 319v836q0 77 41.5 118.5t118.5 41.5h587v-1155h-587q-77 0 -118.5 41.5t-41.5 117.5zM422 348q0 -69 70 -69 h423v917h-423q-70 0 -70 -70v-778zM1083 160v569h670v-119h-543v-331h670v-119h-797zM1083 770v545h797v-119h-670v-307h543v-119h-670z" />
<glyph unicode="&#x178;" horiz-adv-x="1228" d="M12 1475h140l442 -949v-526h-127v510zM195 1475h141l278 -631l279 631h139l-418 -902zM283 1618v254h249v-254h-249zM381 1718h53v54h-53v-54zM635 0v526l440 949h142l-455 -965v-510h-127zM696 1618v254h250v-254h-250zM795 1718h53v54h-53v-54z" />
<glyph unicode="&#x2c6;" horiz-adv-x="1351" d="M266 1610l287 266h246l286 -266h-100l-246 219h-127l-245 -219h-101zM403 1610l222 188h102l221 -188h-98l-174 141l-174 -141h-99z" />
<glyph unicode="&#x2dc;" horiz-adv-x="1249" d="M307 1610l41 194q17 81 121 56l299 -78l39 80h53l-55 -156l-336 90q-31 8 -46 1t-22 -34l-43 -153h-51zM387 1610l53 157l334 -88q35 -9 47 -3t21 34l47 152h53l-45 -197q-17 -80 -119 -53l-303 82l-37 -84h-51z" />
<glyph unicode="&#x2000;" horiz-adv-x="983" />
<glyph unicode="&#x2001;" horiz-adv-x="1966" />
<glyph unicode="&#x2002;" horiz-adv-x="983" />
<glyph unicode="&#x2003;" horiz-adv-x="1966" />
<glyph unicode="&#x2004;" horiz-adv-x="655" />
<glyph unicode="&#x2005;" horiz-adv-x="491" />
<glyph unicode="&#x2006;" horiz-adv-x="327" />
<glyph unicode="&#x2007;" horiz-adv-x="327" />
<glyph unicode="&#x2008;" horiz-adv-x="245" />
<glyph unicode="&#x2009;" horiz-adv-x="393" />
<glyph unicode="&#x200a;" horiz-adv-x="109" />
<glyph unicode="&#x2010;" horiz-adv-x="946" d="M104 541v112h738v-112h-738zM104 694v113h738v-113h-738z" />
<glyph unicode="&#x2011;" horiz-adv-x="946" d="M104 541v112h738v-112h-738zM104 694v113h738v-113h-738z" />
<glyph unicode="&#x2012;" horiz-adv-x="946" d="M104 541v112h738v-112h-738zM104 694v113h738v-113h-738z" />
<glyph unicode="&#x2013;" horiz-adv-x="1150" d="M104 541v112h943v-112h-943zM104 694v113h943v-113h-943z" />
<glyph unicode="&#x2014;" horiz-adv-x="1642" d="M104 541v112h1434v-112h-1434zM104 694v113h1434v-113h-1434z" />
<glyph unicode="&#x2018;" horiz-adv-x="512" d="M113 901v221q0 67 98 193l121 160h114l-157 -275h110v-299h-286zM227 1022h58v57h-58v-57z" />
<glyph unicode="&#x2019;" horiz-adv-x="512" d="M66 901l157 275h-110v299h286v-222q0 -66 -98 -192l-121 -160h-114zM227 1296h58v58h-58v-58z" />
<glyph unicode="&#x201a;" horiz-adv-x="512" d="M66 -274l157 274h-110v299h286v-221q0 -67 -98 -193l-121 -159h-114zM227 121h58v57h-58v-57z" />
<glyph unicode="&#x201c;" horiz-adv-x="933" d="M113 901v221q0 67 98 193l121 160h114l-157 -275h110v-299h-286zM227 1022h58v57h-58v-57zM535 901v221q0 67 98 193l121 160h114l-157 -275h110v-299h-286zM649 1022h58v57h-58v-57z" />
<glyph unicode="&#x201d;" horiz-adv-x="933" d="M66 901l157 275h-110v299h286v-222q0 -66 -98 -192l-121 -160h-114zM227 1296h58v58h-58v-58zM487 901l158 275h-110v299h286v-222q0 -66 -98 -192l-121 -160h-115zM649 1296h58v58h-58v-58z" />
<glyph unicode="&#x201e;" horiz-adv-x="512" d="M66 -274l157 274h-110v299h286v-221q0 -67 -98 -193l-121 -159h-114zM227 121h58v57h-58v-57z" />
<glyph unicode="&#x2022;" horiz-adv-x="876" d="M209 610v303q0 32 23 55t55 23h303q32 0 55 -23t23 -55v-303q0 -32 -23 -55t-55 -23h-303q-32 0 -55 23t-23 55zM336 684q0 -15 9 -24t24 -9h139q15 0 24 9t9 24v156q0 32 -33 32h-139q-33 0 -33 -32v-156zM377 713v98q0 20 20 20h82q21 0 21 -20v-98q0 -21 -21 -21h-82 q-20 0 -20 21z" />
<glyph unicode="&#x2026;" horiz-adv-x="1413" d="M113 0v299h286v-299h-286zM227 121h58v57h-58v-57zM563 0v299h287v-299h-287zM678 121h57v57h-57v-57zM1014 0v299h286v-299h-286zM1128 121h58v57h-58v-57z" />
<glyph unicode="&#x202f;" horiz-adv-x="393" />
<glyph unicode="&#x2039;" horiz-adv-x="634" d="M31 666v106l262 373h125l-281 -404v-43l283 -403h-127zM162 721l297 424h129l-301 -426l301 -424h-127z" />
<glyph unicode="&#x203a;" horiz-adv-x="634" d="M47 295l301 424l-301 426h127l299 -424l-299 -426h-127zM215 295l283 403v43l-283 404h127l262 -373v-106l-262 -371h-127z" />
<glyph unicode="&#x205f;" horiz-adv-x="491" />
<glyph unicode="&#x20ac;" horiz-adv-x="1384" d="M51 524v146h160v135h-160v145h160v242q0 129 81 210t210 81h475q129 0 210 -81t81 -210v-197h-127v168q0 95 -53 148t-148 53h-401q-95 0 -148 -53t-53 -148v-852q0 -95 53 -147.5t148 -52.5h401q95 0 148 52.5t53 147.5v168h127v-196q0 -129 -81 -210t-210 -81h-475 q-129 0 -210 81t-81 210v241h-160zM379 311v852q0 77 41.5 118.5t118.5 41.5h401q76 0 118 -41.5t42 -118.5v-168h-127v140q0 69 -70 69h-328q-69 0 -69 -69v-185h364v-145h-364v-135h364v-146h-364v-184q0 -70 69 -70h328q70 0 70 70v139h127v-168q0 -76 -41.5 -117.5 t-118.5 -41.5h-401q-77 0 -118.5 41.5t-41.5 117.5z" />
<glyph unicode="&#x2122;" horiz-adv-x="1548" d="M102 1331v144h533v-144h-191v-594h-153v594h-189zM748 737v738h167l181 -418l184 418h166v-738h-141v482l-158 -367h-100l-158 367v-482h-141z" />
<glyph unicode="&#x25fc;" horiz-adv-x="1474" d="M0 0v1475h1475v-1475h-1475z" />
</font>
</defs>
</svg>
